<svg width="14" height="14" viewBox="0 0 14 14" fill="none" xmlns="http://www.w3.org/2000/svg">
<rect width="14" height="14" rx="5" fill="#FDFDFD"/>
<path d="M7.87786 9.61616H6.99922C6.36395 9.61616 5.84714 9.09935 5.84714 8.46408V3.48509C5.84714 3.15137 5.57563 2.87988 5.24193 2.87988C4.90821 2.87988 4.63672 3.15139 4.63672 3.48509V6.12103C4.63672 6.27204 4.51429 6.39447 4.36328 6.39447C4.21227 6.39447 4.08984 6.27204 4.08984 6.12103V3.48509C4.08984 2.84984 4.60666 2.33301 5.24193 2.33301C5.8772 2.33301 6.39401 2.84984 6.39401 3.48509V8.46408C6.39401 8.79778 6.66552 9.06929 6.99922 9.06929H7.87786C8.02887 9.06929 8.1513 9.19171 8.1513 9.34272C8.1513 9.49373 8.02887 9.61616 7.87786 9.61616Z" fill="#00366D"/>
<path d="M11.3925 10.4949C11.5435 10.4949 11.666 10.3724 11.666 10.2214V6.12109C11.666 5.97008 11.5435 5.84766 11.3925 5.84766C9.3038 5.84766 7.60449 7.54696 7.60449 9.63568V11.393C7.60449 11.544 7.72692 11.6664 7.87793 11.6664H10.221C10.372 11.6664 10.4944 11.544 10.4944 11.393C10.4944 10.897 10.8965 10.4949 11.3925 10.4949Z" fill="#1861C8"/>
<path d="M4.36408 5.84766C3.88955 5.84766 3.50488 6.23233 3.50488 6.70685V10.2214C3.50488 10.3724 3.62731 10.4949 3.77832 10.4949H4.94985C5.10086 10.4949 5.22329 10.3724 5.22329 10.2214V6.70685C5.22327 6.23233 4.8386 5.84766 4.36408 5.84766Z" fill="#EDE6E6"/>
<path d="M5.22248 10.2214V6.70685C5.22248 6.23233 4.8378 5.84766 4.36328 5.84766V10.4949H4.94904C5.10005 10.4949 5.22248 10.3725 5.22248 10.2214Z" fill="#DFD7D7"/>
<path d="M5.53527 9.94775H3.1922C2.71768 9.94775 2.33301 10.3324 2.33301 10.807V11.3927C2.33301 11.5437 2.45543 11.6662 2.60645 11.6662H6.12103C6.27204 11.6662 6.39447 11.5437 6.39447 11.3927V10.807C6.39447 10.3324 6.00979 9.94775 5.53527 9.94775Z" fill="#FAF5F5"/>
<path d="M6.39401 11.3932V10.8074C6.39401 10.3329 6.00934 9.94824 5.53482 9.94824H4.36328V11.6666H6.12057C6.27158 11.6666 6.39401 11.5442 6.39401 11.3932Z" fill="#EDE6E6"/>
<path d="M10.4941 11.393C10.4941 10.897 10.8962 10.4949 11.3922 10.4949C11.5432 10.4949 11.6657 10.3724 11.6657 10.2214V6.12109C11.6657 5.97008 11.5432 5.84766 11.3922 5.84766C10.9835 5.84766 10.5898 5.91299 10.2207 6.03332V11.6664C10.3717 11.6664 10.4941 11.544 10.4941 11.393Z" fill="#004C9C"/>
<path d="M10.2223 11.6663C11.0204 11.6663 11.6673 11.0194 11.6673 10.2213C11.6673 9.4233 11.0204 8.77637 10.2223 8.77637C9.42428 8.77637 8.77734 9.4233 8.77734 10.2213C8.77734 11.0194 9.42428 11.6663 10.2223 11.6663Z" fill="#00366D"/>
<path d="M11.6657 10.2213C11.6657 9.42458 11.0175 8.77637 10.2207 8.77637V11.6663C11.0175 11.6663 11.6657 11.0181 11.6657 10.2213Z" fill="#01223C"/>
</svg>
