<svg width="20" height="12" viewBox="0 0 20 12" fill="none" xmlns="http://www.w3.org/2000/svg">
<path d="M19.902 5.22556C19.7191 5.00786 15.4254 1.86456e-09 9.99988 1.86456e-09C4.57407 -0.000111577 0.280616 5.0076 0.097794 5.22556C-0.0327608 5.37854 -0.0327608 5.60372 0.097794 5.75672C0.280681 5.97442 4.57436 11.0257 9.99988 11.0257C15.4254 11.0257 19.7191 5.97439 19.902 5.75672C20.0325 5.60373 20.0325 5.37856 19.902 5.22556ZM9.99988 10.1897C5.64529 10.1897 1.94401 6.52302 0.977052 5.48694C1.94384 4.45914 5.66272 0.827554 9.99988 0.827554C14.337 0.827554 18.0557 4.49427 19.0227 5.52179C18.0559 6.52337 14.337 10.1897 9.99988 10.1897Z" fill="#073763"/>
<path d="M10.0005 1.8457C9.03218 1.8457 8.10356 2.23057 7.41921 2.91547C6.73474 3.60048 6.35067 4.52933 6.35144 5.49768C6.35222 6.46601 6.73774 7.39432 7.42332 8.07821C8.10879 8.76202 9.03795 9.1454 10.0063 9.14386C10.9746 9.14241 11.9026 8.75599 12.5859 8.06996C13.2693 7.38392 13.6519 6.45441 13.6496 5.48608C13.6473 4.51976 13.2618 3.59382 12.5778 2.91135C11.8937 2.22889 10.9668 1.8457 10.0005 1.8457H10.0005ZM10.0005 8.29903C9.25445 8.29903 8.53896 8.00266 8.01138 7.47507C7.48379 6.94749 7.18742 6.232 7.18742 5.48594C7.18742 4.73989 7.48379 4.0244 8.01138 3.49681C8.53896 2.96923 9.25445 2.67286 10.0005 2.67286C10.7466 2.67286 11.4621 2.96923 11.9896 3.49681C12.5172 4.0244 12.8136 4.73989 12.8136 5.48594C12.8136 6.232 12.5172 6.94749 11.9896 7.47507C11.4621 8.00266 10.7466 8.29903 10.0005 8.29903Z" fill="#073763"/>
</svg>
