<svg width="48" height="48" viewBox="0 0 48 48" fill="none" xmlns="http://www.w3.org/2000/svg">
<g clip-path="url(#clip0_446_7639)">
<path d="M23.8 0.44873C25.9374 0.44873 27.999 0.721594 29.9848 1.26732C31.9707 1.81305 33.8201 2.60132 35.5331 3.63213C37.246 4.66295 38.815 5.87568 40.24 7.27031C41.6649 8.66494 42.8852 10.2339 43.9009 11.9772C44.9165 13.7205 45.6972 15.5775 46.243 17.5482C46.7887 19.5188 47.0691 21.5805 47.0843 23.7331C47.0843 25.8705 46.8114 27.9321 46.2657 29.918C45.72 31.9038 44.9317 33.7532 43.9009 35.4662C42.8701 37.1791 41.6573 38.7481 40.2627 40.1731C38.8681 41.598 37.2991 42.8183 35.5558 43.834C33.8125 44.8496 31.9555 45.6303 29.9848 46.1761C28.0142 46.7218 25.9525 47.0022 23.8 47.0174C21.6625 47.0174 19.6009 46.7445 17.6151 46.1988C15.6292 45.6531 13.7798 44.8648 12.0668 43.834C10.3539 42.8032 8.7849 41.5904 7.35994 40.1958C5.93499 38.8012 4.71469 37.2322 3.69903 35.4889C2.68337 33.7456 1.90268 31.8886 1.35695 29.918C0.811227 27.9473 0.530784 25.8856 0.515625 23.7331C0.515625 21.5956 0.788488 19.534 1.33421 17.5482C1.87994 15.5623 2.66821 13.7129 3.69903 11.9999C4.72985 10.287 5.94257 8.718 7.3372 7.29305C8.73184 5.8681 10.3008 4.64779 12.0441 3.63213C13.7874 2.61648 15.6444 1.83579 17.6151 1.29006C19.5857 0.744332 21.6474 0.46389 23.8 0.44873ZM37.5113 16.0247L34.4189 12.9322L19.4341 27.917L13.181 21.6638L10.0886 24.7563L19.4341 34.1019L37.5113 16.0247Z" fill="#BFA01D"/>
</g>
<defs>
<clipPath id="clip0_446_7639">
<rect width="46.5687" height="46.5687" fill="white" transform="translate(0.515625 0.447998)"/>
</clipPath>
</defs>
</svg>
