<svg width="30" height="30" viewBox="0 0 30 30" fill="none" xmlns="http://www.w3.org/2000/svg">
<path d="M16.1126 25.1394C16.0789 25.1394 16.0452 25.1341 16.0123 25.1237L6.49756 22.1185C6.35882 22.0747 6.26465 21.946 6.26465 21.8008V19.6879C6.26465 19.5035 6.41406 19.3545 6.59801 19.3545C6.78195 19.3545 6.93136 19.5035 6.93136 19.6879V21.5566L15.7792 24.3513L15.7787 4.78821L6.93148 7.58312V9.45185C6.93148 9.63579 6.78206 9.7852 6.59812 9.7852C6.41418 9.7852 6.26477 9.63579 6.26477 9.45185V7.33895C6.26477 7.19372 6.35914 7.06502 6.49768 7.02087L16.0124 4.01564C16.1141 3.9832 16.2244 4.00204 16.3098 4.0646C16.3954 4.12718 16.446 4.2272 16.446 4.3335V24.8062C16.446 24.9123 16.3954 25.0122 16.3098 25.0751C16.252 25.1176 16.1826 25.1396 16.1127 25.1396L16.1126 25.1394Z" fill="#073763"/>
<path d="M2.14199 13.0418C0.960905 13.0418 0 12.0807 0 10.8998C0 9.71872 0.960959 8.75781 2.14199 8.75781C3.32302 8.75781 4.28397 9.71877 4.28397 10.8998C4.28397 12.0807 3.32302 13.0418 2.14199 13.0418ZM2.14199 9.42451C1.32856 9.42451 0.666692 10.0864 0.666692 10.8998C0.666692 11.7132 1.32856 12.3751 2.14199 12.3751C2.95541 12.3751 3.61728 11.7134 3.61728 10.8998C3.61728 10.086 2.95557 9.42451 2.14199 9.42451Z" fill="#073763"/>
<path d="M6.65264 15.7467C5.97025 15.7467 5.41504 15.1913 5.41504 14.5091C5.41504 13.8267 5.97041 13.2715 6.65264 13.2715C7.33503 13.2715 7.89024 13.8269 7.89024 14.5091C7.89024 15.1915 7.33508 15.7467 6.65264 15.7467ZM6.65264 13.9384C6.33791 13.9384 6.08157 14.1948 6.08157 14.5095C6.08157 14.8242 6.33792 15.0806 6.65264 15.0806C6.96758 15.0806 7.22371 14.8242 7.22371 14.5095C7.2235 14.1948 6.96757 13.9384 6.65264 13.9384Z" fill="#073763"/>
<path d="M2.47494 19.7097C1.6109 19.7097 0.908203 19.007 0.908203 18.1429C0.908203 17.2789 1.6109 16.5762 2.47494 16.5762C3.33856 16.5762 4.04168 17.2789 4.04168 18.1429C4.04147 19.007 3.33899 19.7097 2.47494 19.7097ZM2.47494 17.2431C1.97858 17.2431 1.5749 17.6467 1.5749 18.1431C1.5749 18.6395 1.97856 19.0432 2.47494 19.0432C2.97132 19.0432 3.37499 18.6395 3.37499 18.1431C3.37499 17.6468 2.97132 17.2431 2.47494 17.2431Z" fill="#073763"/>
<path d="M10.2601 17.9639C10.2601 18.2138 10.0575 18.4164 9.80768 18.4164C9.55803 18.4164 9.35547 18.2138 9.35547 17.9639C9.35547 17.7141 9.55803 17.5117 9.80768 17.5117C10.0575 17.5117 10.2601 17.7141 10.2601 17.9639Z" fill="#073763"/>
<path d="M9.95737 11.0518C9.95737 11.3017 9.75481 11.5042 9.50516 11.5042C9.2553 11.5042 9.05273 11.3017 9.05273 11.0518C9.05273 10.8022 9.2553 10.5996 9.50516 10.5996C9.75481 10.5996 9.95737 10.8022 9.95737 11.0518Z" fill="#073763"/>
<path d="M12.0619 14.3565C12.0619 14.6064 11.8593 14.8089 11.6094 14.8089C11.3598 14.8089 11.1572 14.6064 11.1572 14.3565C11.1572 14.1066 11.3598 13.9043 11.6094 13.9043C11.8593 13.9043 12.0619 14.1066 12.0619 14.3565Z" fill="#073763"/>
<path d="M26.9143 12.2089C25.9209 12.2089 24.9275 11.7772 23.9413 10.9139C22.236 9.42129 20.5783 9.42172 18.873 10.9139C18.7347 11.0349 18.5239 11.0213 18.4026 10.8826C18.2816 10.7438 18.2956 10.5335 18.4342 10.4121C20.4069 8.68554 22.4074 8.68554 24.38 10.4121C26.0857 11.9048 27.7427 11.9048 29.4483 10.4121C29.5862 10.2908 29.797 10.3044 29.9188 10.4435C30.0397 10.5823 30.0257 10.7926 29.8872 10.9139C28.9009 11.7771 27.908 12.2089 26.9142 12.2089H26.9143Z" fill="#073763"/>
<path d="M26.9143 16.1159C25.9209 16.1159 24.9275 15.6846 23.9413 14.8212C22.2356 13.3289 20.5786 13.3289 18.873 14.8212C18.7347 14.9421 18.5239 14.9285 18.4026 14.7898C18.2816 14.651 18.2956 14.4407 18.4342 14.3194C20.4069 12.5928 22.4074 12.5928 24.38 14.3194C26.0857 15.8116 27.7427 15.8116 29.4483 14.3194C29.5862 14.198 29.797 14.212 29.9188 14.3508C30.0397 14.4895 30.0257 14.6998 29.8872 14.8212C28.9009 15.6846 27.908 16.1159 26.9142 16.1159H26.9143Z" fill="#073763"/>
<path d="M26.9143 20.0223C25.9209 20.0223 24.9275 19.591 23.9413 18.7276C22.2356 17.2345 20.5786 17.2345 18.873 18.7276C18.7347 18.8484 18.5239 18.835 18.4026 18.696C18.2816 18.5577 18.2956 18.347 18.4342 18.2256C20.4069 16.499 22.4074 16.499 24.38 18.2256C26.0857 19.7187 27.7427 19.7187 29.4483 18.2256C29.5862 18.1042 29.797 18.1178 29.9188 18.2572C30.0397 18.3955 30.0257 18.6063 29.8872 18.7276C28.9009 19.591 27.908 20.0223 26.9142 20.0223H26.9143Z" fill="#073763"/>
</svg>
