<svg width="20" height="20" viewBox="0 0 20 20" fill="none" xmlns="http://www.w3.org/2000/svg">
<path d="M14.1421 3H5.62715C5.28772 3 5.00324 3.27478 5.00324 3.61422V5.13038C5.00324 5.46981 5.29096 5.74785 5.62715 5.74785H5.87608V6.90842C5.87608 7.39332 6.09267 7.84267 6.4709 8.14657L9.4127 10.5L6.52263 12.7403C6.13147 13.041 5.90516 13.5 5.90516 13.9914V15.2522H5.62391C5.28448 15.2522 5 15.5302 5 15.8696V17.3858C5 17.7252 5.28772 18 5.62391 18H14.1356C14.475 18 14.7595 17.7252 14.7595 17.3858V15.8696C14.7595 15.5302 14.4718 15.2522 14.1356 15.2522H13.9255V13.9946C13.9255 13.5032 13.6927 13.0312 13.3016 12.7338L10.3565 10.4935L13.2951 8.14332C13.6733 7.84267 13.8899 7.3901 13.8899 6.90516V5.74785H14.1389C14.4783 5.74785 14.7628 5.46983 14.7628 5.13038V3.61422C14.766 3.27479 14.4783 3 14.1421 3H14.1421ZM14.1195 15.8341C14.1389 15.8341 14.1518 15.847 14.1518 15.8664V17.3858C14.1518 17.4052 14.1389 17.4181 14.1195 17.4181H5.61723C5.59784 17.4181 5.5849 17.4052 5.5849 17.3858V15.8664C5.5849 15.847 5.59783 15.8341 5.61723 15.8341H14.1195ZM12.9492 13.1961C13.1981 13.3836 13.3436 13.681 13.3436 13.9946V15.2522H6.49004V13.9882C6.49004 13.681 6.63874 13.3836 6.88119 13.1961L9.88444 10.8686L12.9492 13.1961ZM13.3113 6.90856C13.3113 7.21569 13.1723 7.50017 12.9331 7.6909L9.88458 10.1284L6.83612 7.6909C6.59689 7.50017 6.45788 7.21569 6.45788 6.90856V5.74799H13.3115L13.3113 6.90856ZM14.1518 5.13378C14.1518 5.15318 14.1389 5.16611 14.1195 5.16611H5.61724C5.59784 5.16611 5.58491 5.15318 5.58491 5.13378V3.61439C5.58491 3.595 5.59784 3.58206 5.61724 3.58206H14.1195C14.1389 3.58206 14.1518 3.59499 14.1518 3.61439V5.13378Z" fill="#073763"/>
</svg>
