<svg width="30" height="30" viewBox="0 0 30 30" fill="none" xmlns="http://www.w3.org/2000/svg">
<path fill-rule="evenodd" clip-rule="evenodd" d="M4.79756 9.94502V11.1769H1.6208C0.713079 11.1769 0 11.89 0 12.7328V15.1317C0 15.5855 0.324125 15.9096 0.777916 15.9096C3.95468 15.9096 4.08431 19.9292 0.777916 19.9292C0.324143 19.9292 0 20.2534 0 20.7072V23.106C0 23.9489 0.713079 24.662 1.6208 24.662H3.95467C4.40845 24.662 4.79756 24.3378 4.79756 23.884C4.79756 20.7073 8.7524 20.6424 8.7524 23.884C8.7524 24.3378 9.07653 24.662 9.53032 24.662H11.9292C12.8369 24.662 13.55 23.9489 13.55 23.106V19.9292H14.717C17.3103 19.9292 17.3103 15.9096 14.717 15.9096H13.55V12.7328C13.55 11.89 12.8369 11.1769 11.9292 11.1769H8.7524V9.94502C8.7524 7.35166 4.79756 7.35166 4.79756 9.94502Z" fill="#073763"/>
<path fill-rule="evenodd" clip-rule="evenodd" d="M18.087 9.94502C18.087 7.35166 22.0418 7.35166 22.0418 9.94502V11.1769H25.2834C26.1263 11.1769 26.8394 11.89 26.8394 12.7328V15.9096H28.0064C30.6645 15.9096 30.6645 19.9292 28.0064 19.9292H26.8394V23.106C26.8394 23.9489 26.1263 24.662 25.2834 24.662H22.8846C22.4306 24.662 22.0417 24.3378 22.0417 23.884C22.0417 20.6424 18.0868 20.7073 18.0868 23.884C18.0868 24.3378 17.7627 24.662 17.3089 24.662H14.9101C14.7156 24.662 14.5212 24.662 14.3267 24.5323C14.3267 24.5323 14.3267 24.5323 14.3267 24.5323C14.586 24.1434 14.7804 23.6246 14.7804 23.106V21.1611C18.9297 21.0963 18.9297 14.7426 14.7804 14.6778V12.7329C14.7804 12.4228 14.7109 12.1126 14.5995 11.8163C14.5247 11.6171 14.4309 11.4242 14.3267 11.2418C14.5211 11.177 14.7156 11.177 14.9101 11.177H18.0868L18.087 9.94502ZM18.7118 10.2893V11.802H15.2554C15.3477 12.0967 15.4055 12.4101 15.4055 12.7329V14.1051C16.3261 14.2507 17.0631 14.6881 17.5892 15.3026C18.2174 16.0363 18.5174 16.9886 18.5174 17.9195C18.5174 18.8503 18.2174 19.8027 17.5892 20.5364C17.0631 21.1508 16.3261 21.5882 15.4055 21.7338V23.106C15.4055 23.4281 15.348 23.7436 15.2531 24.0369H17.3089C17.3829 24.0369 17.4143 24.0129 17.4261 24.0012C17.4378 23.9895 17.4618 23.9581 17.4618 23.884C17.4618 21.9961 18.6852 20.8634 20.0591 20.8522C20.7245 20.8467 21.3887 21.1124 21.8822 21.6449C22.3776 22.1796 22.6667 22.9441 22.6667 23.884C22.6667 23.9217 22.6795 23.9504 22.7096 23.9774C22.7442 24.0083 22.8048 24.0369 22.8846 24.0369H25.2834C25.7811 24.0369 26.2143 23.6037 26.2143 23.106V19.3042H28.0064C28.4995 19.3042 28.8244 19.1242 29.0328 18.8878C29.2517 18.6396 29.375 18.2901 29.375 17.9194C29.375 17.5488 29.2517 17.1993 29.0328 16.951C28.8244 16.7147 28.4995 16.5346 28.0064 16.5346H26.2143V12.7328C26.2143 12.2351 25.7811 11.8019 25.2834 11.8019H21.4168V9.94502C21.4168 9.46992 21.2422 9.15769 21.0125 8.95679C20.7704 8.74516 20.4283 8.62502 20.0644 8.62502C19.7004 8.62502 19.3583 8.74516 19.1163 8.95679C18.8865 9.15769 18.712 9.46992 18.712 9.94502L18.7118 10.2893Z" fill="#073763"/>
</svg>
