<svg width="20" height="20" viewBox="0 0 20 20" fill="none" xmlns="http://www.w3.org/2000/svg">
<path d="M10 3C13.8642 3 17 6.12687 17 10C17 13.8731 13.8731 17 10 17C8.64978 17 7.33502 16.6091 6.19797 15.8807C4.53683 14.8058 3.40857 13.0825 3.08883 11.1281C3.05326 10.8794 3.21326 10.6484 3.46199 10.613C3.71072 10.5774 3.94172 10.7374 3.97716 10.9861C4.26145 12.6918 5.25634 14.193 6.70434 15.1257C9.5381 16.9467 13.3224 16.1296 15.1434 13.2958C16.9644 10.462 16.1473 6.67776 13.3135 4.8567C10.4797 3.03569 6.69546 3.85286 4.8744 6.68664C4.74117 6.891 4.4658 6.95309 4.26145 6.81987C4.05709 6.68664 3.99501 6.41127 4.12823 6.20692C5.42515 4.21698 7.62823 3.00895 10.0001 3.00007L10 3ZM9.48483 9.52919C9.73356 9.52919 9.929 9.72463 9.929 9.97335V12.5228C9.929 12.7715 9.73356 12.967 9.48483 12.967C9.23611 12.967 9.04067 12.7715 9.04067 12.5228V9.99105C9.03175 9.74233 9.22718 9.53798 9.4671 9.53798C9.4759 9.52918 9.4759 9.52918 9.48482 9.52918L9.48483 9.52919ZM11.981 7.04182C12.0965 7.04182 12.212 7.08618 12.292 7.16624C12.4608 7.34396 12.4608 7.61932 12.292 7.79692L9.80472 10.302C9.627 10.4797 9.35164 10.4797 9.17404 10.302C8.99633 10.1243 8.99633 9.84895 9.17404 9.67135L11.6702 7.1841C11.75 7.09524 11.8567 7.04183 11.9811 7.04183L11.981 7.04182ZM3.53306 9.85787L3.85279 10.1066L5.08763 11.2347C5.25642 11.4124 5.2475 11.6966 5.0699 11.8654C4.91003 12.0165 4.66131 12.0342 4.48361 11.8921L3.53307 11.0037L2.54709 11.8388C2.35166 11.9809 2.06737 11.9364 1.9252 11.7411C1.79198 11.5634 1.81862 11.3147 1.97849 11.1637L3.53306 9.85787Z" fill="#073763"/>
</svg>
