<svg width="16" height="13" viewBox="0 0 16 13" fill="none" xmlns="http://www.w3.org/2000/svg">
<path d="M2.14628 12.4391C1.24056 12.4391 0.5 11.6985 0.5 10.7928V3.47568C0.5 2.56996 1.2406 1.8294 2.14628 1.8294H4.46146L5.10177 0.23453L5.10164 0.234402C5.15549 0.0945538 5.28909 0.00165941 5.43901 0H10.561H10.5609C10.7107 0.00165883 10.8444 0.0945506 10.8982 0.234275L11.5385 1.82914H13.8537C14.7594 1.82914 15.5 2.56974 15.5 3.47542V10.7925C15.5 11.6982 14.7594 12.4388 13.8537 12.4388H2.14635L2.14628 12.4391ZM2.14628 11.7074H13.8536C14.3667 11.7074 14.7683 11.3059 14.7683 10.7928V3.47568C14.7683 2.9626 14.3667 2.56104 13.8536 2.56104H11.2927V2.56091C11.1443 2.56015 11.0111 2.46993 10.9555 2.33225L10.3152 0.731638H5.68482L5.04451 2.33225C4.98887 2.46981 4.85566 2.56015 4.70727 2.56091H2.14635C1.63327 2.56091 1.23171 2.96247 1.23171 3.47555V10.7927C1.23171 11.3057 1.63327 11.7073 2.14635 11.7073L2.14628 11.7074ZM7.99996 10.427C6.18588 10.427 4.70727 8.94845 4.70727 7.13426C4.70727 5.32005 6.18578 3.84157 7.99996 3.84157C9.81415 3.84157 11.2927 5.32008 11.2927 7.13426C11.2927 8.94848 9.81415 10.427 7.99996 10.427ZM7.99996 9.69531C9.41876 9.69531 10.5609 8.55303 10.5609 7.13439C10.5609 5.71559 9.4186 4.57347 7.99996 4.57347C6.58133 4.57347 5.43904 5.71576 5.43904 7.13439C5.43904 8.55306 6.58133 9.69531 7.99996 9.69531Z" fill="#073763"/>
</svg>
