<svg width="20" height="20" viewBox="0 0 20 20" fill="none" xmlns="http://www.w3.org/2000/svg">
<circle cx="10" cy="10" r="10" fill="white"/>
<path fillRule="evenodd" clipRule="evenodd" d="M14.8536 7.14645C14.6583 6.95118 14.3417 6.95118 14.1464 7.14645L8.15614 13.1368L5.85356 10.8342C5.65831 10.639 5.34175 10.639 5.14645 10.8342C4.95118 11.0295 4.95118 11.3461 5.14645 11.5413L7.80258 14.1974C7.99778 14.3927 8.31458 14.3925 8.50969 14.1974L14.8536 7.85356C15.0488 7.65831 15.0488 7.34173 14.8536 7.14645Z" fill="#00B633"/>
<path fillRule="evenodd" clipRule="evenodd" d="M14.8536 7.14645C14.6583 6.95118 14.3417 6.95118 14.1464 7.14645L8.15614 13.1368L5.85356 10.8342C5.65831 10.639 5.34175 10.639 5.14645 10.8342C4.95118 11.0295 4.95118 11.3461 5.14645 11.5413L7.80258 14.1974C7.99778 14.3927 8.31458 14.3925 8.50969 14.1974L14.8536 7.85356C15.0488 7.65831 15.0488 7.34173 14.8536 7.14645V7.14645Z" stroke="#00B633"/>
</svg>
