<svg width="30" height="30" viewBox="0 0 30 30" fill="none" xmlns="http://www.w3.org/2000/svg">
<path d="M25.1396 19.6001C24.7935 18.7951 24.5736 17.9421 24.4895 17.0701L24.4596 16.8301H23.5296C23.5397 16.9501 23.5596 17.05 23.5696 17.16V17.19C23.6656 18.145 23.9086 19.079 24.2897 19.9599C24.6476 20.8228 25.1257 21.6307 25.7096 22.3598L22.9797 23.0997L22.1198 21.2298C22.0408 21.0728 21.8848 20.9708 21.7098 20.9598C21.5319 20.9588 21.3688 21.0597 21.2898 21.2197L20.2799 23.2097L16.2801 23.2397L15.4302 20.7097C15.3713 20.5307 15.2082 20.4077 15.0203 20.3997L15 20.4V20.3899L14.9801 20.4C14.7921 20.408 14.629 20.5311 14.5701 20.71L13.7202 23.24L9.73028 23.21L8.71028 21.2201C8.63529 21.061 8.47625 20.9601 8.30031 20.9601L8.29027 20.9599C8.11433 20.968 7.9573 21.0709 7.8803 21.23L7.02036 23.0999L4.29052 22.3599C4.87644 21.6289 5.35454 20.817 5.71045 19.95C6.08844 19.072 6.33134 18.141 6.43046 17.1902C6.4405 17.0702 6.46043 16.9602 6.47047 16.8303L5.54038 16.8301C5.53034 16.9101 5.52046 16.9902 5.51042 17.0801C5.42537 17.949 5.20641 18.7989 4.86039 19.6C4.44138 20.5969 3.85243 21.5139 3.12038 22.3099C3.01039 22.4279 2.97239 22.5958 3.02044 22.7499C3.04036 22.8269 3.08238 22.8958 3.14047 22.9499C3.19253 23.0098 3.26251 23.0518 3.34051 23.0699L7.16034 24.0899C7.37729 24.1519 7.60732 24.0459 7.7004 23.84L8.3203 22.4901L9.03024 23.88C9.10825 24.036 9.26628 24.136 9.44021 24.14L14.0502 24.17C14.2512 24.17 14.4282 24.0409 14.4901 23.8501L15 22.3302L15.5099 23.8501C15.5718 24.0411 15.7489 24.17 15.9498 24.17L20.5598 24.14C20.7337 24.136 20.8918 24.036 20.9698 23.88L21.6797 22.4901L22.2996 23.84C22.3927 24.0461 22.6225 24.152 22.8397 24.0899L26.6595 23.0699C26.7375 23.0518 26.8075 23.01 26.8595 22.9499C26.9175 22.8958 26.9595 22.8269 26.9796 22.7499C27.0276 22.5958 26.9896 22.4279 26.8796 22.3099C26.1479 21.5141 25.5588 20.597 25.14 19.6002L25.1396 19.6001Z" fill="#073763"/>
<path d="M23.5309 16.8295H25.9109C26.5609 16.6304 27.0039 16.0295 27.0009 15.3495C26.9999 14.4885 26.302 13.7906 25.441 13.7896H24.6111V12.9697C24.6131 11.9937 23.8231 11.2017 22.8471 11.1997H22.8411L22.701 11.1999V9.99994C22.697 7.78903 20.9021 5.99815 18.6912 6.00017L11.3115 6C9.1006 5.99799 7.30569 7.78887 7.30171 9.99977V11.1997L7.16176 11.1999C6.18582 11.1979 5.39381 11.9879 5.39179 12.9638V12.9698V13.7898H4.56182C3.70085 13.7908 3.00295 14.4887 3.00197 15.3496C2.99896 16.0296 3.44192 16.6306 4.09195 16.8296C4.09195 16.8295 23.5311 16.8295 23.5311 16.8295L23.5309 16.8295ZM8.23159 10.0001C8.23661 8.30309 9.61453 6.92923 11.3115 6.93022H18.6912C20.3881 6.92921 21.766 8.30309 21.771 10.0001V11.2H20.741V10.0001C20.735 8.87212 19.8191 7.9611 18.6912 7.96007H11.3115C10.1835 7.96108 9.26766 8.87208 9.26161 10.0001V11.2H8.23176L8.23159 10.0001ZM6.33156 12.9698C6.33055 12.5128 6.70051 12.1408 7.15751 12.1398H7.16152H11.1203V11.1998L10.2014 11.2V10.0001C10.2115 9.39306 10.7045 8.90409 11.3113 8.90006H18.691C19.298 8.90408 19.791 9.39306 19.8008 10.0001V11.2H13.8731V12.14H22.8406C23.2976 12.139 23.6696 12.509 23.6705 12.966V12.97V13.7899H6.33129L6.33156 12.9698ZM5.86165 15.9697H4.56176C4.21975 15.9697 3.94186 15.6926 3.94186 15.3498C3.94186 15.0078 4.21891 14.7299 4.56176 14.7299H4.56276H25.4419C25.7839 14.7299 26.0618 15.0069 26.0618 15.3498C26.0618 15.6928 25.7847 15.9697 25.4419 15.9697H25.4409H5.86165Z" fill="#073763"/>
<path d="M12.8901 12.1402H13.8721V11.1992H11.1191V12.1402H12.8901Z" fill="#073763"/>
</svg>
