<svg width="20" height="20" viewBox="0 0 20 20" fill="none" xmlns="http://www.w3.org/2000/svg">
<path d="M8.3335 13.3333H4.16683V17.5M11.6668 6.66667H15.8335V2.5M3.81934 7.50284C4.28657 6.34638 5.06886 5.3442 6.07729 4.61019C7.08571 3.87618 8.28088 3.4396 9.52496 3.35042C10.769 3.26125 12.0124 3.52284 13.1152 4.10551C14.2181 4.68819 15.1345 5.56878 15.7619 6.64677M16.1815 12.4976C15.7142 13.654 14.9319 14.6562 13.9235 15.3902C12.9151 16.1242 11.7211 16.5602 10.4771 16.6494C9.23297 16.7386 7.98855 16.477 6.88574 15.8944C5.78294 15.3117 4.86585 14.4313 4.23844 13.3533" stroke="#696E7C" stroke-width="1.66667" stroke-linecap="round" stroke-linejoin="round"/>
</svg>
