<svg width="14" height="14" viewBox="0 0 14 14" fill="none" xmlns="http://www.w3.org/2000/svg">
<rect width="14" height="14" rx="5" fill="#FDFDFD"/>
<path d="M11.6654 8.35889H10.1846C10.009 6.80907 9.01038 5.50896 7.63606 4.90658C7.10816 4.67511 6.52474 4.54657 5.91122 4.54657C4.4183 4.54657 3.10327 5.30739 2.33203 6.46235C3.07077 4.72114 4.79609 3.5 6.80671 3.5C7.28577 3.5 7.74868 3.56925 8.18578 3.6985C10.1976 4.29282 11.6654 6.15451 11.6654 8.35889Z" fill="#314256"/>
<path d="M10.3563 4.56689L6.3622 9.61207C6.1664 9.85798 6.20703 10.2161 6.45296 10.4118C6.69887 10.6076 7.05695 10.567 7.25273 10.3211C7.28002 10.2868 7.32388 10.2143 7.32388 10.2143L7.40037 10.0719L10.3563 4.56689Z" fill="#E9AA1B"/>
<path d="M6.75496 10.2715C6.64727 10.2715 6.54932 10.2019 6.51286 10.1009C6.47721 10.0022 6.50747 9.88816 6.58691 9.81958C6.67184 9.74624 6.79762 9.73753 6.89236 9.79709C6.98122 9.85296 7.02743 9.96168 7.00696 10.0645C6.98336 10.183 6.87615 10.2715 6.75496 10.2715Z" fill="#3D3D3D"/>
</svg>
