<svg width="20" height="20" viewBox="0 0 20 20" fill="none" xmlns="http://www.w3.org/2000/svg">
<path d="M3.56538 3.5701C5.284 1.85225 7.5693 0.905896 10.0004 0.905896C12.0963 0.905896 14.0829 1.61063 15.6926 2.90515L14.6742 3.01236C14.4253 3.0389 14.2446 3.26174 14.2713 3.51029C14.2962 3.74303 14.4924 3.91574 14.7214 3.91574C14.7374 3.91574 14.7532 3.9149 14.7692 3.91342L16.8059 3.69837C16.8436 3.69416 16.879 3.68447 16.9131 3.67183C16.9224 3.66846 16.931 3.66467 16.9397 3.66046C16.9886 3.6394 17.0318 3.61033 17.0695 3.57474C17.0714 3.57263 17.0743 3.572 17.0764 3.56989C17.0787 3.56757 17.0794 3.56442 17.0819 3.56231C17.1209 3.52208 17.1514 3.47532 17.174 3.42372C17.1746 3.42098 17.1759 3.41866 17.1769 3.41614C17.1974 3.36411 17.2088 3.30872 17.2092 3.25016V3.24953C17.2092 3.23331 17.2104 3.21731 17.2085 3.20067L16.9938 1.16496C16.9673 0.916208 16.7407 0.739706 16.4955 0.761819C16.2466 0.788358 16.0658 1.0112 16.0926 1.25974L16.1859 2.14123C14.4289 0.754669 12.2735 0 10.0007 0C7.32787 0 4.81503 1.04028 2.9253 2.9296C-0.0188759 5.87246 -0.831441 10.39 0.902818 14.172C0.97889 14.3384 1.14304 14.4361 1.31456 14.4361C1.37778 14.4361 1.44205 14.4228 1.50337 14.3948C1.73052 14.2906 1.83083 14.022 1.72631 13.7945C0.149517 10.3557 0.888717 6.24676 3.56609 3.57016L3.56538 3.5701ZM19.1256 5.89142C19.023 5.66352 18.755 5.56074 18.5264 5.66458C18.2986 5.76715 18.1966 6.03528 18.2999 6.26336C19.8432 9.68941 19.0941 13.7766 16.4354 16.4344C13.1273 19.7407 7.88524 19.963 4.3152 17.1037L5.32116 16.9974C5.57002 16.9708 5.75081 16.748 5.72469 16.4994C5.69814 16.2507 5.47266 16.0748 5.22633 16.0963L3.25801 16.304C3.23862 16.3033 3.22029 16.3082 3.2009 16.3101L3.19037 16.3113C3.16445 16.3141 3.13895 16.3198 3.1143 16.3271C3.09133 16.3341 3.06962 16.3423 3.04686 16.353C3.00556 16.3724 2.96721 16.3975 2.93307 16.4289C2.93076 16.4312 2.92696 16.4322 2.92486 16.4346C2.92191 16.4373 2.92127 16.4409 2.91875 16.4436C2.90758 16.4548 2.89514 16.4647 2.88524 16.4771C2.80981 16.5706 2.7744 16.69 2.78747 16.8099L3.00282 18.8454C3.02706 19.0779 3.22345 19.2506 3.45229 19.2506C3.4683 19.2506 3.48453 19.2498 3.50054 19.2479C3.74941 19.2216 3.9302 18.9987 3.90344 18.75L3.80883 17.8577C5.61764 19.2845 7.80854 20 10 20C12.563 20 15.1256 19.025 17.0765 17.075C20 14.1526 20.8235 9.6583 19.1259 5.89143L19.1256 5.89142Z" fill="#073763"/>
</svg>
