<svg width="14" height="14" viewBox="0 0 14 14" fill="none" xmlns="http://www.w3.org/2000/svg">
<path d="M11.7148 13.75H0.63537C0.394514 13.75 0.25 13.6054 0.25 13.4128V2.33337C0.25 2.14068 0.394514 1.948 0.63537 1.948H6.99398C7.18666 1.948 7.33118 2.09251 7.33118 2.33337C7.33118 2.57422 7.18666 2.67057 6.99398 2.67057H0.972569V13.0274H11.3294V7.00598C11.3294 6.8133 11.4739 6.62061 11.7148 6.62061C11.9556 6.62061 12.1001 6.76513 12.1001 7.00598V13.4128C12.052 13.6054 11.9074 13.75 11.7148 13.75Z" fill="#073763"/>
<path d="M5.01916 9.36641C4.92282 9.36641 4.82648 9.31824 4.77831 9.27007C4.63379 9.12556 4.63379 8.8847 4.77831 8.74019L13.1119 0.358385C13.2565 0.213872 13.4973 0.213872 13.6418 0.358385C13.7863 0.502899 13.7863 0.743756 13.6418 0.888269L5.26002 9.2219C5.21185 9.31824 5.11551 9.36641 5.01916 9.36641Z" fill="#073763"/>
<path d="M13.3048 4.93458C13.2567 4.93458 13.2567 4.93458 13.3048 4.93458C13.1121 4.93458 12.9195 4.74189 12.9195 4.54921L13.0158 0.936361L9.40295 1.08087C9.21026 1.08087 9.01758 0.936361 9.01758 0.743676C9.01758 0.550991 9.16209 0.358305 9.35478 0.358305L13.353 0.261963C13.4493 0.261963 13.5457 0.310134 13.5938 0.358305C13.642 0.406477 13.7384 0.550991 13.7384 0.647333L13.642 4.59738C13.642 4.79006 13.4975 4.93458 13.3048 4.93458Z" fill="#073763"/>
</svg>
