<svg width="19" height="21" viewBox="0 0 19 21" fill="none" xmlns="http://www.w3.org/2000/svg">
<path d="M2.46909 9.16777C2.46909 10.9523 2.2735 15.1328 0.391019 15.5973L0.0243855 15.695L0 19.0442H6.3562C6.64951 20.3155 7.72518 21 9.04545 21C10.3655 21 11.4412 20.3155 11.7347 19.0442H18.0909L18.0665 15.7194L17.6994 15.6217C15.8169 15.1572 15.6213 10.9523 15.6213 9.19217C15.6213 4.9873 13.03 3.32491 11.1475 2.66484C11.1964 2.49363 11.2208 2.3226 11.2208 2.15137C11.2208 0.95343 10.243 0 9.06945 0C7.89604 0 6.91808 0.977789 6.91808 2.15137C6.91808 2.32258 6.94247 2.49362 6.99141 2.66484C5.0849 3.30055 2.46916 4.9629 2.46916 9.16772L2.46909 9.16777ZM9.04531 20.0222C8.33644 20.0222 7.70069 19.6066 7.38301 18.9954H10.6834C10.39 19.6066 9.75423 20.0222 9.04536 20.0222H9.04531ZM7.72527 3.42274L8.33644 3.25153L8.01858 2.7137C7.92087 2.54249 7.87192 2.32251 7.87192 2.12693C7.87192 1.46682 8.40976 0.953521 9.04533 0.953521C9.68091 0.953521 10.2187 1.49135 10.2187 2.12693C10.2187 2.32253 10.1698 2.54251 10.0721 2.7137L9.75422 3.25153L10.3654 3.42274C12.3212 3.96057 14.6192 5.4029 14.6192 9.16777C14.6192 14.1794 15.9149 15.8173 17.0883 16.3552V17.8221L0.97778 17.8219V16.355C2.17572 15.8415 3.44687 14.1792 3.44687 9.1676C3.44705 5.42739 5.76946 3.98529 7.72526 3.42257L7.72527 3.42274Z" fill="#073763"/>
</svg>
