
<svg width="30" height="30" viewBox="0 0 30 30" fill="none" xmlns="http://www.w3.org/2000/svg">
<path d="M5.1903 14.043C5 14.5024 5 15.0845 5 16.2494V22.2494C5 23.6495 5 24.3491 5.27248 24.8839C5.51217 25.3543 5.89434 25.7375 6.36475 25.9772C6.899 26.2494 7.59874 26.2494 8.99614 26.2494H21.0045C22.4019 26.2494 23.1006 26.2494 23.6349 25.9772C24.1053 25.7375 24.4881 25.3543 24.7278 24.8839C25 24.3496 25 23.6506 25 22.2533V16.2494C25 15.0845 24.9999 14.5024 24.8096 14.043" stroke="#BFA01D" stroke-width="2.5" stroke-linecap="round" stroke-linejoin="round"/>
<path d="M11.25 16.25L15 20M15 20L18.75 16.25M15 20V7.5" stroke="#BFA01D" stroke-width="2.5" stroke-linecap="round" stroke-linejoin="round"/>
</svg>
