<svg width="20" height="12" viewBox="0 0 20 12" fill="none" xmlns="http://www.w3.org/2000/svg">
<path d="M19.9021 5.22556C19.7192 5.00786 15.4255 1.86456e-09 10 1.86456e-09C4.57419 -0.000111577 0.280738 5.0076 0.0979161 5.22556C-0.0326387 5.37854 -0.0326387 5.60372 0.0979161 5.75672C0.280804 5.97442 4.57448 11.0257 10 11.0257C15.4255 11.0257 19.7193 5.97439 19.9021 5.75672C20.0326 5.60373 20.0326 5.37856 19.9021 5.22556ZM10 10.1897C5.64541 10.1897 1.94413 6.52302 0.977175 5.48694C1.94396 4.45914 5.66284 0.827554 10 0.827554C14.3372 0.827554 18.0559 4.49427 19.0228 5.52179C18.056 6.52337 14.3372 10.1897 10 10.1897Z" fill="#073763"/>
<path d="M10.0006 1.84619C9.0323 1.84619 8.10368 2.23106 7.41933 2.91596C6.73486 3.60097 6.35079 4.52981 6.35156 5.49817C6.35234 6.4665 6.73786 7.3948 7.42344 8.0787C8.10891 8.76251 9.03807 9.14589 10.0064 9.14435C10.9748 9.1429 11.9027 8.75648 12.5861 8.07044C13.2694 7.38441 13.652 6.4549 13.6497 5.48657C13.6475 4.52025 13.2619 3.59431 12.5779 2.91184C11.8938 2.22937 10.9669 1.84619 10.0006 1.84619H10.0006ZM10.0006 8.29951C9.25457 8.29951 8.53908 8.00314 8.0115 7.47556C7.48392 6.94798 7.18754 6.23249 7.18754 5.48643C7.18754 4.74037 7.48392 4.02488 8.0115 3.4973C8.53908 2.96972 9.25457 2.67335 10.0006 2.67335C10.7467 2.67335 11.4622 2.96972 11.9898 3.4973C12.5173 4.02488 12.8137 4.74037 12.8137 5.48643C12.8137 6.23249 12.5173 6.94798 11.9898 7.47556C11.4622 8.00314 10.7467 8.29951 10.0006 8.29951Z" fill="#073763"/>
</svg>
