<svg width="14" height="14" viewBox="0 0 14 14" fill="none" xmlns="http://www.w3.org/2000/svg">
<rect width="14" height="14" rx="5" fill="#FDFDFD"/>
<path d="M4.21552 11.3239L2.65001 9.75837C2.32631 9.43467 2.32629 8.90795 2.65001 8.58423L5.78101 5.45323C6.10473 5.12951 6.63143 5.12953 6.95515 5.45323L8.52066 7.01874C8.84437 7.34246 8.84437 7.86916 8.52066 8.19288L5.38964 11.3239C5.06592 11.6476 4.53922 11.6476 4.21552 11.3239Z" fill="#FCCC3B"/>
<path d="M4.21538 11.3238C4.5391 11.6475 5.0658 11.6475 5.38952 11.3238L8.52054 8.19274C8.84426 7.86902 8.84426 7.34232 8.52054 7.0186L7.73779 6.23584L3.43262 10.541L4.21538 11.3238Z" fill="#E9AA1B"/>
<path d="M8.36478 8.74151L7.58204 7.95876C7.47396 7.85068 7.47396 7.67546 7.58204 7.56739C7.69011 7.45931 7.86533 7.45931 7.97341 7.56739L8.75615 8.35013C8.86423 8.45821 8.86423 8.63343 8.75615 8.74151C8.64809 8.84958 8.47286 8.84958 8.36478 8.74151Z" fill="#314256"/>
<path d="M7.42435 9.67998L6.64161 8.89724C6.53353 8.78916 6.53353 8.61394 6.64161 8.50586C6.74968 8.39779 6.9249 8.39779 7.03298 8.50586L7.81572 9.28861C7.9238 9.39669 7.9238 9.5719 7.81572 9.67998C7.70765 9.78806 7.53243 9.78806 7.42435 9.67998Z" fill="#314256"/>
<path d="M6.4849 10.6199L5.70215 9.83718C5.59407 9.7291 5.59407 9.55388 5.70215 9.4458C5.81023 9.33773 5.98545 9.33773 6.09352 9.4458L6.87627 10.2286C6.98435 10.3366 6.98435 10.5118 6.87627 10.6199C6.76819 10.728 6.59298 10.728 6.4849 10.6199Z" fill="#314256"/>
<path d="M5.54642 11.5584L4.76368 10.7757C4.6556 10.6676 4.6556 10.4924 4.76368 10.3843C4.87175 10.2762 5.04697 10.2762 5.15505 10.3843L5.93779 11.167C6.04587 11.2751 6.04587 11.4503 5.93779 11.5584C5.82973 11.6665 5.6545 11.6665 5.54642 11.5584Z" fill="#314256"/>
<path d="M6.01615 6.39287L5.2334 5.61013C5.12532 5.50205 5.12532 5.32683 5.2334 5.21875C5.34148 5.11068 5.5167 5.11068 5.62478 5.21875L6.40752 6.0015C6.5156 6.10958 6.5156 6.28479 6.40752 6.39287C6.29944 6.50095 6.12423 6.50095 6.01615 6.39287Z" fill="#3E516C"/>
<path d="M5.07767 7.33233L4.29493 6.54958C4.18685 6.4415 4.18685 6.26629 4.29493 6.15821C4.403 6.05013 4.57822 6.05013 4.6863 6.15821L5.46904 6.94095C5.57712 7.04903 5.57712 7.22425 5.46904 7.33233C5.36097 7.44039 5.18573 7.44039 5.07767 7.33233Z" fill="#3E516C"/>
<path d="M4.13626 8.27129L3.35352 7.48854C3.24544 7.38047 3.24544 7.20525 3.35352 7.09717C3.4616 6.98909 3.63681 6.98909 3.74489 7.09717L4.52764 7.87992C4.63572 7.988 4.63572 8.16321 4.52764 8.27129C4.41956 8.37937 4.24434 8.37937 4.13626 8.27129Z" fill="#3E516C"/>
<path d="M3.19779 9.21074L2.41504 8.428C2.30696 8.31992 2.30696 8.1447 2.41504 8.03663C2.52312 7.92855 2.69834 7.92855 2.80642 8.03663L3.58916 8.81937C3.69724 8.92745 3.69724 9.10267 3.58916 9.21074C3.4811 9.31882 3.30587 9.31882 3.19779 9.21074Z" fill="#3E516C"/>
<path d="M6.99452 7.25662C7.14736 7.25662 7.27126 7.13271 7.27126 6.97987C7.27126 6.82703 7.14736 6.70312 6.99452 6.70312C6.84168 6.70312 6.71777 6.82703 6.71777 6.97987C6.71777 7.13271 6.84168 7.25662 6.99452 7.25662Z" fill="#3E516C"/>
<path d="M6.05409 8.19607C6.20693 8.19607 6.33083 8.07217 6.33083 7.91932C6.33083 7.76648 6.20693 7.64258 6.05409 7.64258C5.90125 7.64258 5.77734 7.76648 5.77734 7.91932C5.77734 8.07217 5.90125 8.19607 6.05409 8.19607Z" fill="#3E516C"/>
<path d="M5.11561 9.13503C5.26845 9.13503 5.39236 9.01113 5.39236 8.85829C5.39236 8.70545 5.26845 8.58154 5.11561 8.58154C4.96277 8.58154 4.83887 8.70545 4.83887 8.85829C4.83887 9.01113 4.96277 9.13503 5.11561 9.13503Z" fill="#3E516C"/>
<path d="M4.17616 10.075C4.329 10.075 4.4529 9.95107 4.4529 9.79823C4.4529 9.64539 4.329 9.52148 4.17616 9.52148C4.02332 9.52148 3.89941 9.64539 3.89941 9.79823C3.89941 9.95107 4.02332 10.075 4.17616 10.075Z" fill="#3E516C"/>
<path d="M7.1902 7.17555C7.29828 7.06747 7.29828 6.89226 7.1902 6.78418L6.79883 7.17555C6.90689 7.28363 7.08212 7.28363 7.1902 7.17555Z" fill="#314256"/>
<path d="M6.24977 8.11501C6.35785 8.00693 6.35785 7.83171 6.24977 7.72363L5.8584 8.11501C5.96648 8.22308 6.14169 8.22308 6.24977 8.11501Z" fill="#314256"/>
<path d="M5.31129 9.05397C5.41937 8.94589 5.41937 8.77068 5.31129 8.6626L4.91992 9.05397C5.028 9.16205 5.20323 9.16205 5.31129 9.05397Z" fill="#314256"/>
<path d="M4.37184 9.99342C4.47992 9.88535 4.47992 9.71013 4.37184 9.60205L3.98047 9.99342C4.08855 10.1015 4.26376 10.1015 4.37184 9.99342Z" fill="#314256"/>
<path d="M7.04657 8.51968L5.48106 6.95417C5.15736 6.63047 5.15734 6.10375 5.48106 5.78003L8.61206 2.64903C8.93578 2.32531 9.46248 2.32533 9.7862 2.64903L11.3517 4.21454C11.6754 4.53826 11.6754 5.06496 11.3517 5.38868L8.22069 8.51968C7.89697 8.8434 7.37027 8.8434 7.04657 8.51968Z" fill="#FCCC3B"/>
<path d="M7.04546 8.52005C7.36918 8.84377 7.89588 8.84377 8.2196 8.52005L11.3506 5.38903C11.6743 5.06531 11.6743 4.53861 11.3506 4.21489L10.5679 3.43213L6.2627 7.7373L7.04546 8.52005Z" fill="#E9AA1B"/>
<path d="M11.1958 5.93682L10.4131 5.15407C10.305 5.04599 10.305 4.87078 10.4131 4.7627C10.5212 4.65462 10.6964 4.65462 10.8045 4.7627L11.5872 5.54544C11.6953 5.65352 11.6953 5.82874 11.5872 5.93682C11.4791 6.0449 11.3039 6.0449 11.1958 5.93682Z" fill="#314256"/>
<path d="M10.2554 6.87578L9.47266 6.09304C9.36458 5.98496 9.36458 5.80974 9.47266 5.70166C9.58074 5.59359 9.75596 5.59359 9.86403 5.70166L10.6468 6.48441C10.7549 6.59249 10.7549 6.7677 10.6468 6.87578C10.5387 6.98386 10.3635 6.98386 10.2554 6.87578Z" fill="#314256"/>
<path d="M9.31595 7.81524L8.53321 7.03249C8.42513 6.92441 8.42513 6.7492 8.53321 6.64112C8.64129 6.53304 8.8165 6.53304 8.92458 6.64112L9.70733 7.42386C9.8154 7.53194 9.8154 7.70716 9.70733 7.81524C9.59925 7.92331 9.42403 7.9233 9.31595 7.81524Z" fill="#314256"/>
<path d="M8.37748 8.75469L7.59473 7.97194C7.48665 7.86387 7.48665 7.68865 7.59473 7.58057C7.70281 7.47249 7.87803 7.47249 7.9861 7.58057L8.76885 8.36332C8.87693 8.47139 8.87693 8.64661 8.76885 8.75469C8.66079 8.86277 8.48555 8.86277 8.37748 8.75469Z" fill="#314256"/>
<path d="M8.84623 3.58818L8.06348 2.80544C7.9554 2.69736 7.9554 2.52214 8.06348 2.41407C8.17156 2.30599 8.34678 2.30599 8.45485 2.41407L9.2376 3.19681C9.34568 3.30489 9.34568 3.48011 9.2376 3.58818C9.12952 3.69626 8.9543 3.69626 8.84623 3.58818Z" fill="#3E516C"/>
<path d="M7.90775 4.52764L7.125 3.74489C7.01693 3.63681 7.01693 3.4616 7.125 3.35352C7.23308 3.24544 7.4083 3.24544 7.51638 3.35352L8.29912 4.13627C8.4072 4.24434 8.4072 4.41956 8.29912 4.52764C8.19104 4.6357 8.01581 4.6357 7.90775 4.52764Z" fill="#3E516C"/>
<path d="M6.96634 5.4666L6.1836 4.68386C6.07552 4.57578 6.07552 4.40056 6.1836 4.29248C6.29168 4.18441 6.46689 4.18441 6.57497 4.29248L7.35772 5.07523C7.46579 5.18331 7.46579 5.35852 7.35772 5.4666C7.24964 5.57468 7.07442 5.57468 6.96634 5.4666Z" fill="#3E516C"/>
<path d="M6.02787 6.40606L5.24512 5.62331C5.13704 5.51523 5.13704 5.34002 5.24512 5.23194C5.3532 5.12386 5.52842 5.12386 5.63649 5.23194L6.41924 6.01468C6.52732 6.12276 6.52732 6.29798 6.41924 6.40606C6.31118 6.51413 6.13595 6.51413 6.02787 6.40606Z" fill="#3E516C"/>
<path d="M9.8246 4.45193C9.97744 4.45193 10.1013 4.32802 10.1013 4.17518C10.1013 4.02234 9.97744 3.89844 9.8246 3.89844C9.67175 3.89844 9.54785 4.02234 9.54785 4.17518C9.54785 4.32802 9.67175 4.45193 9.8246 4.45193Z" fill="#3E516C"/>
<path d="M8.88417 5.39138C9.03701 5.39138 9.16091 5.26748 9.16091 5.11464C9.16091 4.96179 9.03701 4.83789 8.88417 4.83789C8.73132 4.83789 8.60742 4.96179 8.60742 5.11464C8.60742 5.26748 8.73132 5.39138 8.88417 5.39138Z" fill="#3E516C"/>
<path d="M7.94569 6.33035C8.09853 6.33035 8.22244 6.20644 8.22244 6.0536C8.22244 5.90076 8.09853 5.77686 7.94569 5.77686C7.79285 5.77686 7.66895 5.90076 7.66895 6.0536C7.66895 6.20644 7.79285 6.33035 7.94569 6.33035Z" fill="#3E516C"/>
<path d="M7.00624 7.27029C7.15908 7.27029 7.28298 7.14638 7.28298 6.99354C7.28298 6.8407 7.15908 6.7168 7.00624 6.7168C6.85339 6.7168 6.72949 6.8407 6.72949 6.99354C6.72949 7.14638 6.85339 7.27029 7.00624 7.27029Z" fill="#3E516C"/>
<path d="M10.0213 4.37086C10.1293 4.26279 10.1293 4.08757 10.0213 3.97949L9.62988 4.37086C9.73794 4.47894 9.91318 4.47894 10.0213 4.37086Z" fill="#314256"/>
<path d="M9.08278 5.31032C9.19086 5.20224 9.19086 5.02702 9.08278 4.91895L8.69141 5.31032C8.79948 5.4184 8.9747 5.4184 9.08278 5.31032Z" fill="#314256"/>
<path d="M8.14235 6.24977C8.25043 6.14169 8.25043 5.96648 8.14235 5.8584L7.75098 6.24977C7.85905 6.35785 8.03429 6.35785 8.14235 6.24977Z" fill="#314256"/>
<path d="M7.2029 7.18874C7.31097 7.08066 7.31097 6.90544 7.2029 6.79736L6.81152 7.18874C6.9196 7.29681 7.09482 7.29681 7.2029 7.18874Z" fill="#314256"/>
</svg>
