<svg width="46" height="46" viewBox="0 0 46 46" fill="none" xmlns="http://www.w3.org/2000/svg">
<path d="M32.8829 7.00681V10.1648C32.8829 10.3804 32.9772 10.5826 33.1434 10.7174C33.5253 11.0318 33.8936 11.3687 34.244 11.7236C35.697 13.175 36.8548 14.8943 37.6536 16.7863C38.4815 18.7464 38.9062 20.8532 38.9024 22.981C38.9024 25.1328 38.4801 27.2172 37.6536 29.1758C36.8548 31.0678 35.697 32.787 34.244 34.2385C32.796 35.6925 31.0797 36.8519 29.1903 37.6525C27.2317 38.4836 25.1518 38.9013 23.0001 38.9013C20.8483 38.9013 18.7684 38.4791 16.8098 37.6525C14.9186 36.8529 13.2161 35.7029 11.7561 34.2385C10.2962 32.774 9.14616 31.0715 8.34655 29.1758C7.51999 27.2172 7.09772 25.1328 7.09772 22.981C7.09772 20.8293 7.5155 18.7449 8.34655 16.7863C9.14616 14.8906 10.2962 13.1881 11.7561 11.7236C12.111 11.3687 12.4794 11.0363 12.8567 10.7174C13.0229 10.5826 13.1173 10.376 13.1173 10.1648V7.00681C13.1173 6.72381 12.8028 6.54861 12.5647 6.70584C7.21003 10.1513 3.66569 16.1799 3.68366 23.0304C3.71061 33.7937 12.4479 42.4232 23.1977 42.3154C33.7768 42.2076 42.3165 33.5916 42.3165 22.981C42.3165 16.1484 38.7766 10.1469 33.4354 6.70584C33.1973 6.5531 32.8829 6.72381 32.8829 7.00681ZM22.7171 3.01326L17.6858 9.38767C17.4971 9.62576 17.6678 9.97166 17.9688 9.97166H21.3829L21.3829 24.0771C21.3829 24.2748 21.5446 24.4365 21.7423 24.4365H24.2579C24.4555 24.4365 24.6173 24.2748 24.6173 24.0771L24.6173 9.97166H28.0313C28.3323 9.97166 28.503 9.62127 28.3143 9.38767L23.2831 3.01326C23.2495 2.97031 23.2065 2.93557 23.1575 2.91168C23.1084 2.88779 23.0546 2.87537 23.0001 2.87537C22.9455 2.87537 22.8917 2.88779 22.8427 2.91168C22.7936 2.93557 22.7507 2.97031 22.7171 3.01326Z" fill="#BFA01D"/>
</svg>
