<svg width="20" height="20" viewBox="0 0 20 20" fill="none" xmlns="http://www.w3.org/2000/svg">
<path d="M9.99943 17.5529C9.93344 17.5529 9.86744 17.5309 9.8234 17.4649L5.31375 11.5694C3.70792 9.45754 3.70792 6.53176 5.31375 4.41993C6.43566 2.94609 8.15153 2.11011 9.99938 2.11011C11.8472 2.11011 13.5631 2.94609 14.685 4.41993C16.2909 6.53176 16.2909 9.45754 14.685 11.5694L10.1754 17.4649C10.1313 17.5088 10.0653 17.5529 9.99934 17.5529H9.99943ZM9.99943 2.55002C8.28357 2.55002 6.69969 3.32001 5.66577 4.68381C4.16984 6.64171 4.16984 9.34745 5.66577 11.3053L9.99943 16.9589L14.3331 11.3053C15.829 9.34741 15.829 6.64166 14.3331 4.68381C13.2991 3.34196 11.7153 2.55002 9.99943 2.55002Z" fill="#BFA01D"/>
<path fill-rule="evenodd" clip-rule="evenodd" d="M10 2.21998C8.18594 2.21998 6.50267 3.04035 5.40188 4.48643C3.826 6.55892 3.82602 9.4302 5.40192 11.5027L9.91353 17.4008L9.9155 17.4037C9.9335 17.4307 9.95932 17.4427 9.99995 17.4427C10.0211 17.4427 10.0579 17.4254 10.0935 17.3916L14.5981 11.5027C16.174 9.4302 16.174 6.55892 14.5981 4.48643C13.4973 3.04035 11.8141 2.21998 10 2.21998ZM9.99995 17.6627C9.90961 17.6627 9.80476 17.6315 9.73471 17.5291L5.227 11.6361L5.22681 11.6358C3.59106 9.48465 3.59106 6.50441 5.22681 4.35324L5.22685 4.35319C6.36989 2.85159 8.11834 2 10 2C11.8817 2 13.6301 2.85159 14.7732 4.35319L14.7732 4.35324C16.4089 6.50441 16.4089 9.48465 14.7732 11.6358L14.773 11.6361L10.2589 17.5375L10.2536 17.5427C10.2026 17.5936 10.1099 17.6627 10 17.6627M5.57887 4.61708C6.63406 3.22532 8.25064 2.43992 10 2.43992C11.7504 2.43992 13.3663 3.24795 14.4208 4.61656L14.4211 4.61692C15.9472 6.61419 15.9472 9.37465 14.4211 11.372L14.421 11.3721L10 17.1395L5.57899 11.372C4.05298 9.37474 4.05294 6.61438 5.57887 4.61708ZM10 2.6599C8.3178 2.6599 6.76668 3.4144 5.75404 4.75015L5.75379 4.75048C4.28798 6.66895 4.28798 9.31998 5.75379 11.2384L10 16.7779L14.2463 11.2384C15.7121 9.31996 15.7121 6.66895 14.2464 4.75053C13.233 3.43562 11.6813 2.6599 10 2.6599Z" fill="#BFA01D"/>
<path d="M9.99824 11.5253C8.06244 11.5253 6.47852 9.94142 6.47852 8.00557C6.47852 6.06976 8.06239 4.48584 9.99824 4.48584C11.9341 4.48584 13.518 6.06972 13.518 8.00557C13.518 9.94137 11.9341 11.5253 9.99824 11.5253ZM9.99824 4.92581C8.30433 4.92581 6.91848 6.3117 6.91848 8.00557C6.91848 9.69948 8.30437 11.0853 9.99824 11.0853C11.6921 11.0853 13.078 9.69943 13.078 8.00557C13.078 6.31165 11.6921 4.92581 9.99824 4.92581Z" fill="#BFA01D"/>
<path fill-rule="evenodd" clip-rule="evenodd" d="M9.99886 4.59572C8.12376 4.59572 6.58912 6.13039 6.58912 8.00545C6.58912 9.88055 8.1238 11.4152 9.99886 11.4152C11.874 11.4152 13.4086 9.88051 13.4086 8.00545C13.4086 6.13035 11.874 4.59572 9.99886 4.59572ZM6.36914 8.00545C6.36914 6.0089 8.00226 4.37573 9.99886 4.37573C11.9955 4.37573 13.6286 6.00885 13.6286 8.00545C13.6286 10.002 11.9955 11.6352 9.99886 11.6352C8.00231 11.6352 6.36914 10.002 6.36914 8.00545ZM6.80911 8.00545C6.80911 6.25084 8.2442 4.8157 9.99886 4.8157C11.7535 4.8157 13.1886 6.25079 13.1886 8.00545C13.1886 9.76007 11.7535 11.1952 9.99886 11.1952C8.24424 11.1952 6.80911 9.76011 6.80911 8.00545ZM9.99886 5.03568C8.36569 5.03568 7.02909 6.37233 7.02909 8.00545C7.02909 9.63861 8.36574 10.9752 9.99886 10.9752C11.632 10.9752 12.9686 9.63857 12.9686 8.00545C12.9686 6.37229 11.632 5.03568 9.99886 5.03568Z" fill="#BFA01D"/>
</svg>
