<svg width="40" height="40" viewBox="0 0 40 40" fill="none" xmlns="http://www.w3.org/2000/svg">
<path d="M10.401 24.8009C9.76446 24.8009 9.15401 24.6324 8.70392 24.3323C8.25383 24.0322 8.00098 23.6253 8.00098 23.2009V16.8009C8.00098 16.3766 8.25383 15.9696 8.70392 15.6696C9.15401 15.3695 9.76446 15.2009 10.401 15.2009H24.801V24.8009H10.401Z" fill="#696E7C"/>
<path fill-rule="evenodd" clip-rule="evenodd" d="M30.0007 9.99988H8.33399C7.0079 9.99988 5.73613 10.5267 4.79845 11.4643C3.86077 12.402 3.33398 13.6738 3.33398 14.9999V24.9999C3.33398 26.326 3.86077 27.5977 4.79845 28.5354C5.73613 29.4731 7.0079 29.9999 8.33399 29.9999H30.0007C31.3267 29.9999 32.5985 29.4731 33.5362 28.5354C34.4739 27.5977 35.0007 26.326 35.0007 24.9999C35.4427 24.9999 35.8666 24.8243 36.1792 24.5117C36.4917 24.1992 36.6673 23.7752 36.6673 23.3332V16.6665C36.6673 16.2245 36.4917 15.8006 36.1792 15.488C35.8666 15.1755 35.4427 14.9999 35.0007 14.9999C35.0007 13.6738 34.4739 12.402 33.5362 11.4643C32.5985 10.5267 31.3267 9.99988 30.0007 9.99988ZM30.0007 13.3332H8.33399C7.89196 13.3332 7.46803 13.5088 7.15547 13.8214C6.84291 14.1339 6.66732 14.5579 6.66732 14.9999V24.9999C6.66732 25.4419 6.84291 25.8658 7.15547 26.1784C7.46803 26.4909 7.89196 26.6665 8.33399 26.6665H30.0007C30.4427 26.6665 30.8666 26.4909 31.1792 26.1784C31.4917 25.8658 31.6673 25.4419 31.6673 24.9999V14.9999C31.6673 14.5579 31.4917 14.1339 31.1792 13.8214C30.8666 13.5088 30.4427 13.3332 30.0007 13.3332Z" fill="#696E7C"/>
</svg>
