<svg width="20" height="20" viewBox="0 0 20 20" fill="none" xmlns="http://www.w3.org/2000/svg">
<path d="M5.52281 5.13221C5.52281 4.84439 6.01375 4.62424 6.62327 4.62424C7.2328 4.62424 7.72374 4.84438 7.72374 5.13221C7.72374 5.42003 7.2328 5.64017 6.62327 5.64017C6.01387 5.64006 5.52281 5.42003 5.52281 5.13221ZM8.67201 12.5989C8.43498 13.1068 8.65512 13.6656 9.23074 13.9195C8.79056 12.9544 9.29841 12.1248 9.45088 11.2612C9.16306 11.7015 8.89215 12.1418 8.67198 12.5989H8.67201ZM16.1556 11.0243V13.7163C16.3587 14.0381 16.4603 14.3767 16.4603 14.7323C16.4603 16.5608 13.4973 18 9.72168 18C5.94603 18 3 16.5609 3 14.7323C3 14.3937 3.10157 14.0551 3.28782 13.7503V11.0075C3.10157 10.7028 3 10.364 3 10.0254C3 9.70372 3.10157 9.38203 3.28782 9.0603V6.2328C3.10157 5.9281 3 5.58938 3 5.25079C3 3.42222 5.96296 2 9.73861 2C13.5143 2 16.4772 3.42219 16.4772 5.25079C16.4772 5.6064 16.3757 5.92797 16.1725 6.2497V9.00951C16.3757 9.33123 16.4772 9.66983 16.4772 10.0254C16.4772 10.3809 16.3588 10.7195 16.1555 11.0244L16.1556 11.0243ZM3.82969 5.25079C3.82969 6.40205 6.25079 7.68891 9.73867 7.68891C13.2265 7.68891 15.6477 6.41907 15.6477 5.25079C15.6477 4.08251 13.2264 2.81267 9.73867 2.81267C6.25091 2.81267 3.82969 4.0995 3.82969 5.25079ZM15.6477 14.7323C15.6477 14.5291 15.58 14.309 15.4275 14.1058C15.3767 14.0382 15.3428 13.9365 15.3428 13.8519V11.8709C14.7502 12.2941 13.9375 12.6498 12.9555 12.9037C12.9216 12.9206 12.8878 12.9206 12.8539 12.9206C12.6677 12.9206 12.4983 12.802 12.4476 12.6159C12.3968 12.3957 12.5322 12.1757 12.7523 12.1079C14.513 11.6507 15.6476 10.8381 15.6476 10.0254C15.6476 9.80525 15.5629 9.60211 15.4105 9.38197C15.3597 9.3143 15.3258 9.22962 15.3258 9.14494V7.09621C14.1408 7.95976 12.092 8.51852 9.73855 8.51852C7.36825 8.51852 5.31951 7.95979 4.13433 7.07931V9.16181C4.13433 9.24649 4.10043 9.33117 4.06666 9.39884C3.9143 9.61898 3.84651 9.82212 3.84651 10.0084C3.84651 10.821 4.9809 11.6338 6.74181 12.0909C6.96195 12.1417 7.09742 12.3787 7.04651 12.5988C6.99572 12.7851 6.82637 12.9035 6.64013 12.9035C6.60623 12.9035 6.57246 12.9035 6.53856 12.8866C5.53965 12.6327 4.74388 12.2771 4.15123 11.8369V13.8179C4.15123 13.8687 4.15123 13.9026 4.13434 13.9534C4.11746 13.9873 4.10045 14.0549 4.06667 14.0888C3.93121 14.292 3.86353 14.4952 3.86353 14.6983C3.86353 15.8496 6.28463 17.1365 9.77252 17.1365C13.2603 17.1365 15.6476 15.8835 15.6476 14.7322L15.6477 14.7323ZM10.0434 9.382C10.2636 9.61903 12.1429 11.7015 12.1429 12.9206C12.1429 14.2412 11.0593 15.3248 9.7387 15.3248C8.41807 15.3248 7.33447 14.2412 7.33447 12.9206C7.33447 11.7016 9.21384 9.61903 9.43397 9.382C9.58632 9.21264 9.89102 9.21264 10.0434 9.382H10.0434ZM11.3133 12.9206C11.3133 12.328 10.4328 11.1089 9.73873 10.2794C9.02762 11.109 8.16419 12.3281 8.16419 12.9206C8.16419 13.7841 8.8753 14.4952 9.73873 14.4952C10.6022 14.4953 11.3133 13.7842 11.3133 12.9206Z" fill="#073763"/>
</svg>
