<svg width="18" height="18" viewBox="0 0 18 18" fill="none" xmlns="http://www.w3.org/2000/svg">
<path d="M15.8313 18.0004C16.0904 17.9972 16.299 17.7867 16.2997 17.5275V10.1224H15.3683V17.069H0.931333V2.28297H6.79155V1.35156H0.467937C0.207783 1.35752 0 1.57014 0 1.83029V17.5275C0.000554407 17.7866 0.208872 17.9973 0.467937 18.0004L15.8313 18.0004Z" fill="#073763"/>
<path d="M14.7725 0.139438C14.6855 0.0507333 14.5666 0.000558153 14.4424 4.63302e-06C14.3182 -0.000548887 14.1989 0.0485157 14.111 0.136391L4.0018 10.2456C3.9275 10.3197 3.88052 10.4169 3.86846 10.5211L3.47649 13.903C3.45986 14.0463 3.51073 14.1893 3.61398 14.2901C3.71738 14.3909 3.86167 14.438 4.00457 14.4176L7.26267 13.955C7.36261 13.9407 7.45519 13.8944 7.52657 13.823L17.6358 3.71417C17.8165 3.53343 17.8177 3.24084 17.6387 3.05857L14.7725 0.139438ZM6.97783 13.0545L4.47121 13.4105L4.77502 10.7892L12.6967 2.86751L14.907 5.12534L6.97783 13.0545ZM15.5659 4.46647L13.3556 2.20864L14.4373 1.12701L16.651 3.38136L15.5659 4.46647Z" fill="#073763"/>
</svg>
