<svg width="20" height="20" viewBox="0 0 20 20" fill="none" xmlns="http://www.w3.org/2000/svg">
<circle cx="10" cy="10" r="10" fill="white"/>
<path d="M8.68216 4.0485C8.65445 3.47784 9.10966 3 9.68099 3H10.3544C10.9265 3 11.382 3.47912 11.3531 4.05052L10.9843 11.3413C10.9581 11.8601 10.5298 12.2673 10.0103 12.2673C9.49007 12.2673 9.06142 11.859 9.03619 11.3394L8.68216 4.0485ZM10.0187 17C9.58125 17 9.21875 16.8548 8.93125 16.5644C8.64375 16.2607 8.5 15.8911 8.5 15.4554C8.5 15.0198 8.64375 14.6568 8.93125 14.3663C9.21875 14.0759 9.58125 13.9307 10.0187 13.9307C10.4438 13.9307 10.7938 14.0759 11.0688 14.3663C11.3563 14.6568 11.5 15.0198 11.5 15.4554C11.5 15.8911 11.3563 16.2607 11.0688 16.5644C10.7938 16.8548 10.4438 17 10.0187 17Z" fill="#FCCC3B"/>
</svg>
