<svg width="20" height="20" viewBox="0 0 20 20" fill="none" xmlns="http://www.w3.org/2000/svg">
<path d="M10 1.39995C12.2808 1.39995 14.4682 2.30606 16.081 3.9189C17.6939 5.5316 18.6 7.71923 18.6 9.99993C18.6 12.2806 17.6939 14.4681 16.081 16.081C14.4683 17.6938 12.2807 18.5999 10 18.5999C7.7193 18.5999 5.53182 17.6938 3.91897 16.081C2.30613 14.4683 1.40003 12.2806 1.40003 9.99993C1.40003 7.71923 2.30613 5.53175 3.91897 3.9189C5.53167 2.30606 7.7193 1.39995 10 1.39995ZM10 0C7.34781 0 4.80432 1.05356 2.92898 2.92898C1.05356 4.80425 0 7.34788 0 10C0 12.6521 1.05356 15.1957 2.92898 17.071C4.80425 18.9464 7.34788 20 10 20C12.6521 20 15.1957 18.9464 17.071 17.071C18.9464 15.1957 20 12.6521 20 10C20 7.34788 18.9464 4.80432 17.071 2.92898C15.1957 1.05356 12.6521 0 10 0V0Z" fill="#073763"/>
<path d="M9.93447 4.50009C11.1545 4.54613 12.1165 5.00009 12.8365 5.90005C13.8365 7.15604 13.6145 8.92206 12.3346 9.96395C12.0145 10.224 11.6666 10.4519 11.3206 10.6799H11.3205C11.1479 10.7762 11.0078 10.9214 10.9177 11.0973C10.8277 11.2731 10.7917 11.4718 10.8145 11.6679C10.8255 11.7689 10.8255 11.8709 10.8145 11.9719C10.7987 12.1254 10.7245 12.267 10.6072 12.3671C10.4898 12.4673 10.3385 12.5185 10.1845 12.51C10.0334 12.5066 9.88884 12.448 9.77821 12.3452C9.66758 12.2423 9.59866 12.1023 9.58443 11.9519C9.49445 11.01 9.77444 10.23 10.5844 9.68593C10.8904 9.48587 11.1845 9.26393 11.5045 9.06189C12.5045 8.41386 12.5045 6.63584 11.2605 6.03595C10.4492 5.61924 9.48583 5.62371 8.67847 6.04795C8.25298 6.26586 7.92052 6.63027 7.74252 7.07391C7.68616 7.23811 7.56353 7.37106 7.40435 7.4404C7.24517 7.5096 7.06423 7.50863 6.90589 7.43789C6.74741 7.36716 6.6259 7.23296 6.57135 7.06832C6.51666 6.90356 6.53382 6.72346 6.6185 6.57197C7.16453 5.45005 8.09645 4.83202 9.29048 4.57199C9.50365 4.53655 9.71862 4.51241 9.93444 4.5L9.93447 4.50009Z" fill="#073763"/>
<path d="M9.52771 14.7997C9.52771 14.3038 9.8617 13.9998 10.2877 14.0958H10.2876C10.4003 14.1143 10.5045 14.1673 10.5859 14.2476C10.6672 14.3278 10.7216 14.4313 10.7417 14.5437C10.7937 14.8417 10.8077 15.1438 10.5297 15.3617V15.3618C10.4372 15.4399 10.3226 15.4875 10.2018 15.4978C10.0811 15.5083 9.96018 15.4809 9.85569 15.4198C9.74408 15.3625 9.65271 15.2724 9.59397 15.1615C9.53538 15.0506 9.51222 14.9243 9.52771 14.7997L9.52771 14.7997Z" fill="#073763"/>
</svg>
