<svg width="24" height="24" viewBox="0 0 24 24" fill="none" xmlns="http://www.w3.org/2000/svg">
<path d="M21.1085 24.0002C21.4539 23.9959 21.732 23.7152 21.7329 23.3696V13.4962H20.491V22.7584H1.24178V3.04363H9.0554V1.80176H0.623916C0.277044 1.8097 0 2.09319 0 2.44006V23.3697C0.000739209 23.7151 0.278496 23.996 0.623916 24.0003L21.1085 24.0002Z" fill="#073763"/>
<path d="M19.6964 0.185918C19.5803 0.0676444 19.4218 0.000744204 19.2562 6.17735e-06C19.0906 -0.000731849 18.9315 0.0646876 18.8143 0.181854L5.3354 13.6608C5.23635 13.7596 5.1737 13.8892 5.15762 14.0282L4.635 18.5373C4.61282 18.7284 4.68064 18.9191 4.81832 19.0535C4.95618 19.1878 5.14856 19.2506 5.3391 19.2235L9.68324 18.6066C9.81648 18.5876 9.93993 18.5259 10.0351 18.4307L23.514 4.95223C23.755 4.71125 23.7567 4.32112 23.5179 4.07809L19.6964 0.185918ZM9.30345 17.4061L5.96128 17.8806L6.36637 14.3856L16.9287 3.82335L19.8757 6.83379L9.30345 17.4061ZM20.7542 5.9553L17.8072 2.94486L19.2494 1.50268L22.201 4.50848L20.7542 5.9553Z" fill="#073763"/>
</svg>
