<svg width="48" height="48" viewBox="0 0 48 48" fill="none" xmlns="http://www.w3.org/2000/svg">
<circle cx="24" cy="24" r="24" fill="white"/>
<path d="M18 31V22C18 20.4087 18.6321 18.8826 19.7574 17.7574C20.8826 16.6321 22.4087 16 24 16C25.5913 16 27.1174 16.6321 28.2426 17.7574C29.3679 18.8826 30 20.4087 30 22V31M18 31H30M18 31H16M30 31H32M23 34H25" stroke="#BFA01D" stroke-width="2" stroke-linecap="round" stroke-linejoin="round"/>
<path d="M24 16C24.5523 16 25 15.5523 25 15C25 14.4477 24.5523 14 24 14C23.4477 14 23 14.4477 23 15C23 15.5523 23.4477 16 24 16Z" stroke="#BFA01D" stroke-width="2"/>
</svg>
