<svg width="10" height="10" viewBox="0 0 10 10" fill="none" xmlns="http://www.w3.org/2000/svg">
<circle cx="5" cy="5" r="5" fill="#073763"/>
<path d="M4.96682 2.25005C5.57682 2.27307 6.05785 2.50004 6.41785 2.95002C6.91784 3.57802 6.80686 4.46103 6.16687 4.98197C6.00685 5.11199 5.83289 5.22597 5.65989 5.33995H5.65982C5.57353 5.38808 5.5035 5.4607 5.45844 5.54867C5.41345 5.63656 5.39546 5.73588 5.40683 5.83397C5.41234 5.88447 5.41234 5.93546 5.40683 5.98596C5.39894 6.06269 5.36184 6.13349 5.30317 6.18357C5.24451 6.23365 5.16883 6.25925 5.09182 6.25499C5.01627 6.25332 4.94401 6.22402 4.88869 6.17261C4.83338 6.12114 4.79892 6.05117 4.7918 5.97597C4.74681 5.50499 4.88681 5.115 5.2918 4.84296C5.44477 4.74294 5.59182 4.63196 5.75183 4.53095C6.25183 4.20693 6.25183 3.31792 5.62983 3.01798C5.22421 2.80962 4.7425 2.81185 4.33883 3.02398C4.12608 3.13293 3.95985 3.31513 3.87085 3.53695C3.84267 3.61905 3.78135 3.68553 3.70176 3.7202C3.62217 3.7548 3.5317 3.75431 3.45253 3.71895C3.37329 3.68358 3.31254 3.61648 3.28526 3.53416C3.25792 3.45178 3.2665 3.36173 3.30884 3.28599C3.58185 2.72503 4.04782 2.41601 4.64483 2.28599C4.75141 2.26828 4.8589 2.25621 4.96681 2.25L4.96682 2.25005Z" fill="white"/>
<path d="M4.76406 7.39987C4.76406 7.15189 4.93105 6.9999 5.14408 7.04789H5.14401C5.20037 7.05716 5.25247 7.08367 5.29314 7.12378C5.33381 7.16389 5.36101 7.21564 5.37106 7.27187C5.39708 7.42086 5.40405 7.57188 5.26503 7.68083V7.6809C5.21879 7.71996 5.16152 7.74375 5.10111 7.74891C5.04077 7.75414 4.9803 7.74047 4.92805 7.70992C4.87225 7.68125 4.82656 7.63619 4.79719 7.58073C4.7679 7.52528 4.75632 7.46215 4.76406 7.39986L4.76406 7.39987Z" fill="white"/>
</svg>
