<svg width="20" height="20" viewBox="0 0 20 20" fill="none" xmlns="http://www.w3.org/2000/svg">
<path d="M2.82796 14.4325L15.6629 14.4325C16.124 14.4325 16.4978 14.0587 16.4978 13.5975L16.4978 12.1966L17.731 12.1966C17.8847 12.1966 18 12.0848 18 11.9311L18 7.50133C18 7.34762 17.8847 7.23582 17.731 7.23582L16.4978 7.23582L16.4978 5.83495C16.4978 5.3738 16.124 5 15.6629 5L2.82796 5C2.3668 5 2 5.3738 2 5.83495L2 13.5974C2 14.0586 2.3668 14.4324 2.82796 14.4324L2.82796 14.4325ZM17.4413 7.79494L17.4413 11.6377L16.4981 11.6377L16.4981 7.79494L17.4413 7.79494ZM2.8385 13.8735C2.68478 13.8735 2.55902 13.7477 2.55902 13.594L2.55902 5.83859C2.55902 5.68488 2.68478 5.55912 2.8385 5.55912L15.6597 5.55912C15.8134 5.55912 15.9391 5.68488 15.9391 5.83859L15.9391 13.594C15.9391 13.7477 15.8134 13.8735 15.6597 13.8735L2.8385 13.8735Z" fill="#BFA01D"/>
<rect x="3" y="6" width="12.5" height="7.5" rx="0.5" fill="#BFA01D"/>
</svg>
