<svg width="20" height="20" viewBox="0 0 20 20" fill="none" xmlns="http://www.w3.org/2000/svg">
<path d="M16.6667 17H3.3333C3.14927 17 3 16.8507 3 16.6667V3.33331C3 3.14927 3.14927 3 3.3333 3H16.6667C16.8507 3 17 3.14927 17 3.33331V16.6667C17 16.8507 16.8507 17 16.6667 17ZM3.66664 16.3334H16.3334V3.66667H3.66664V16.3334Z" fill="#073763"/>
<path d="M10 17H3.3333C3.14927 17 3 16.8507 3 16.6667V3.33331C3 3.14927 3.14927 3 3.3333 3H10C10.184 3 10.3333 3.14927 10.3333 3.33331V16.6667C10.3333 16.8507 10.184 17 10 17ZM3.66664 16.3334H9.66667V3.66667H3.66664V16.3334Z" fill="#073763"/>
<path d="M16.666 10.3333H9.99932C9.81528 10.3333 9.66602 10.184 9.66602 10V3.33331C9.66602 3.14927 9.81529 3 9.99932 3H16.666C16.8501 3 16.9993 3.14927 16.9993 3.33331V10C16.9993 10.184 16.85 10.3333 16.666 10.3333ZM10.3327 9.6667H16.3327V3.66667H10.3327V9.6667Z" fill="#073763"/>
<path d="M16.6667 17.0001H13.3333C13.1493 17.0001 13 16.8508 13 16.6667V10.0001C13 9.81602 13.1493 9.66675 13.3333 9.66675H16.6667C16.8507 9.66675 17 9.81602 17 10.0001V16.6667C17 16.8508 16.8507 17.0001 16.6667 17.0001ZM13.6666 16.3334H16.3334V10.3334H13.6666V16.3334Z" fill="#073763"/>
<path d="M16.6667 17H13.3333C13.1493 17 13 16.8507 13 16.6667V13.3333C13 13.1493 13.1493 13 13.3333 13H16.6667C16.8507 13 17 13.1493 17 13.3333V16.6667C17 16.8507 16.8507 17 16.6667 17ZM13.6666 16.3333H16.3334V13.6666H13.6666V16.3333Z" fill="#073763"/>
<path d="M4.99932 15.1667C4.81528 15.1667 4.66602 15.0174 4.66602 14.8333V7.16656C4.66602 6.9824 4.81517 6.83325 4.99932 6.83325C5.18347 6.83325 5.33263 6.98241 5.33263 7.16656V14.8333C5.33263 15.0174 5.18335 15.1667 4.99932 15.1667Z" fill="#073763"/>
<path d="M4.99932 6.16659C4.81528 6.16659 4.66602 6.01732 4.66602 5.83329V5.16668C4.66602 4.98252 4.81517 4.83325 4.99932 4.83325C5.18347 4.83325 5.33263 4.98253 5.33263 5.16668V5.83329C5.33263 6.01732 5.18335 6.16659 4.99932 6.16659Z" fill="#073763"/>
</svg>
