<svg width="48" height="48" viewBox="0 0 48 48" fill="none" xmlns="http://www.w3.org/2000/svg">
<path d="M12 14H34C35.0609 14 36.0783 14.4214 36.8284 15.1716C37.5786 15.9217 38 16.9391 38 18V19C38 19.2652 38.1054 19.5196 38.2929 19.7071C38.4804 19.8946 38.7348 20 39 20C39.2652 20 39.5196 20.1054 39.7071 20.2929C39.8946 20.4804 40 20.7348 40 21V27C40 27.2652 39.8946 27.5196 39.7071 27.7071C39.5196 27.8946 39.2652 28 39 28C38.7348 28 38.4804 28.1054 38.2929 28.2929C38.1054 28.4804 38 28.7348 38 29V30C38 31.0609 37.5786 32.0783 36.8284 32.8284C36.0783 33.5786 35.0609 34 34 34H12C10.9391 34 9.92172 33.5786 9.17157 32.8284C8.42143 32.0783 8 31.0609 8 30V18C8 16.9391 8.42143 15.9217 9.17157 15.1716C9.92172 14.4214 10.9391 14 12 14Z" stroke="black" stroke-width="2" stroke-linecap="round" stroke-linejoin="round"/>
<rect x="11" y="16" width="4" height="16" fill="#F79009"/>
<rect x="16" y="16" width="4" height="16" fill="#F79009"/>
<rect x="21" y="16" width="4" height="16" fill="#F79009"/>
<rect x="31" y="16" width="4" height="16" fill="#E4E7EC"/>
<rect x="26" y="16" width="4" height="16" fill="#E4E7EC"/>
</svg>
