<svg width="27" height="25" viewBox="0 0 27 25" fill="none" xmlns="http://www.w3.org/2000/svg">
<path d="M20.25 16.875C20.25 18.2625 19.1577 19.375 17.7955 19.375C16.4332 19.375 15.3409 18.2625 15.3409 16.875C15.3409 15.4875 16.4455 14.375 17.7955 14.375C19.1455 14.375 20.25 15.5 20.25 16.875ZM9.20455 14.375C7.85455 14.375 6.75 15.5 6.75 16.875C6.75 18.25 7.85455 19.375 9.20455 19.375C10.5545 19.375 11.6591 18.2625 11.6591 16.875C11.6591 15.4875 10.5668 14.375 9.20455 14.375ZM27 16.25V20C27 20.6875 26.4477 21.25 25.7727 21.25H24.5455V22.5C24.5455 23.8875 23.4532 25 22.0909 25H4.90909C4.2581 25 3.63378 24.7366 3.17347 24.2678C2.71315 23.7989 2.45455 23.163 2.45455 22.5V21.25H1.22727C0.552273 21.25 0 20.6875 0 20V16.25C0 15.5625 0.552273 15 1.22727 15H2.45455C2.45455 10.1625 6.29591 6.25 11.0455 6.25H12.2727V4.6625C11.5364 4.2375 11.0455 3.425 11.0455 2.5C11.0455 1.125 12.15 0 13.5 0C14.85 0 15.9545 1.125 15.9545 2.5C15.9545 3.425 15.4636 4.2375 14.7273 4.6625V6.25H15.9545C20.7041 6.25 24.5455 10.1625 24.5455 15H25.7727C26.4477 15 27 15.5625 27 16.25ZM24.5455 17.5H22.0909V15C22.0909 11.55 19.3418 8.75 15.9545 8.75H11.0455C7.65818 8.75 4.90909 11.55 4.90909 15V17.5H2.45455V18.75H4.90909V22.5H22.0909V18.75H24.5455V17.5Z" fill="white"/>
</svg>
