<svg width="24" height="28" viewBox="0 0 24 28" fill="none" xmlns="http://www.w3.org/2000/svg">
<path d="M0.75 27.75V19C0.75 17.2708 1.35958 15.7971 2.57875 14.5788C3.79792 13.3604 5.27167 12.7508 7 12.75H8.25V2.75C8.25 2.0625 8.495 1.47417 8.985 0.985C9.475 0.495833 10.0633 0.250833 10.75 0.25H13.25C13.9375 0.25 14.5262 0.495 15.0163 0.985C15.5063 1.475 15.7508 2.06333 15.75 2.75V12.75H17C18.7292 12.75 20.2033 13.3596 21.4225 14.5788C22.6417 15.7979 23.2508 17.2717 23.25 19V27.75H0.75ZM3.25 25.25H5.75V21.5C5.75 21.1458 5.87 20.8492 6.11 20.61C6.35 20.3708 6.64667 20.2508 7 20.25C7.35333 20.2492 7.65042 20.3692 7.89125 20.61C8.13208 20.8508 8.25167 21.1475 8.25 21.5V25.25H10.75V21.5C10.75 21.1458 10.87 20.8492 11.11 20.61C11.35 20.3708 11.6467 20.2508 12 20.25C12.3533 20.2492 12.6504 20.3692 12.8913 20.61C13.1321 20.8508 13.2517 21.1475 13.25 21.5V25.25H15.75V21.5C15.75 21.1458 15.87 20.8492 16.11 20.61C16.35 20.3708 16.6467 20.2508 17 20.25C17.3533 20.2492 17.6504 20.3692 17.8912 20.61C18.1321 20.8508 18.2517 21.1475 18.25 21.5V25.25H20.75V19C20.75 17.9583 20.3854 17.0729 19.6562 16.3438C18.9271 15.6146 18.0417 15.25 17 15.25H7C5.95833 15.25 5.07292 15.6146 4.34375 16.3438C3.61458 17.0729 3.25 17.9583 3.25 19V25.25ZM13.25 12.75V2.75H10.75V12.75H13.25Z" fill="white"/>
</svg>
