<svg width="23" height="30" viewBox="0 0 23 30" fill="none" xmlns="http://www.w3.org/2000/svg">
<path fill-rule="evenodd" clip-rule="evenodd" d="M19.6875 11.2485C19.6914 13.0564 19.1107 14.8171 18.0319 16.2678L11.25 25.311L4.46813 16.2678C3.67407 15.195 3.14586 13.9492 2.92686 12.6326C2.70786 11.3159 2.80433 9.96616 3.20834 8.69408C3.61235 7.422 4.31239 6.26391 5.25093 5.31494C6.18948 4.36597 7.33977 3.65319 8.60731 3.23515C9.87485 2.81711 11.2235 2.70574 12.5424 2.91019C13.8614 3.11463 15.113 3.62906 16.1945 4.41122C17.276 5.19337 18.1565 6.22094 18.7638 7.40952C19.371 8.59809 19.6876 9.91376 19.6875 11.2485ZM22.5 11.2485C22.5 13.761 21.6769 16.0785 20.2875 17.9497L13.0069 27.6547L11.25 29.9985L9.49125 27.6547L2.2125 17.9497C1.15254 16.5199 0.446953 14.859 0.153724 13.1034C-0.139505 11.3479 -0.0120114 9.5478 0.52573 7.8511C1.06347 6.15441 1.99611 4.60952 3.24703 3.34337C4.49794 2.07721 6.03142 1.12593 7.72148 0.567679C9.41153 0.0094291 11.2099 -0.139855 12.9689 0.132093C14.7279 0.40404 16.3972 1.08946 17.8398 2.13203C19.2823 3.1746 20.4569 4.54457 21.2671 6.12937C22.0772 7.71418 22.4998 9.46859 22.5 11.2485ZM11.25 14.9985C12.2446 14.9985 13.1984 14.6034 13.9017 13.9001C14.6049 13.1968 15 12.243 15 11.2485C15 10.2539 14.6049 9.30007 13.9017 8.59681C13.1984 7.89355 12.2446 7.49846 11.25 7.49846C10.2554 7.49846 9.30161 7.89355 8.59835 8.59681C7.89509 9.30007 7.5 10.2539 7.5 11.2485C7.5 12.243 7.89509 13.1968 8.59835 13.9001C9.30161 14.6034 10.2554 14.9985 11.25 14.9985Z" fill="white"/>
</svg>
