<svg width="24" height="24" viewBox="0 0 24 24" fill="none" xmlns="http://www.w3.org/2000/svg">
<path d="M17.5 24C18.4565 24.0001 19.3769 23.6346 20.0728 22.9784C20.7688 22.3222 21.1876 21.4249 21.2438 20.47L21.25 20.25V7.75H22.1875C22.9963 7.75 23.6625 7.135 23.7425 6.3475L23.75 6.1875V4C23.7501 3.04349 23.3846 2.12311 22.7284 1.42718C22.0722 0.731243 21.1749 0.312365 20.22 0.256248L20 0.25H7.5C6.54349 0.249947 5.62311 0.615406 4.92717 1.2716C4.23124 1.9278 3.81237 2.82513 3.75625 3.78L3.75 4V16.5H1.5625C1.17568 16.4998 0.80254 16.6431 0.515293 16.9022C0.228046 17.1613 0.0471106 17.5177 0.00750006 17.9025L5.82556e-09 18.0625V20.25C-5.32772e-05 21.2065 0.365406 22.1269 1.0216 22.8228C1.6778 23.5188 2.57513 23.9376 3.53 23.9937L3.75 24H17.5ZM17.5 21.5H6.25V4C6.25 3.66848 6.3817 3.35054 6.61612 3.11612C6.85054 2.88169 7.16848 2.75 7.5 2.75C7.83152 2.75 8.14946 2.88169 8.38388 3.11612C8.6183 3.35054 8.75 3.66848 8.75 4V6.1875C8.75 7.05 9.45 7.75 10.3125 7.75H18.75V20.25C18.75 20.5815 18.6183 20.8995 18.3839 21.1339C18.1495 21.3683 17.8315 21.5 17.5 21.5ZM21.25 5.25H11.25V4C11.25 3.5625 11.175 3.14125 11.0375 2.75H20C20.3315 2.75 20.6495 2.88169 20.8839 3.11612C21.1183 3.35054 21.25 3.66848 21.25 4V5.25ZM12.5 12.75C12.8315 12.75 13.1495 12.6183 13.3839 12.3839C13.6183 12.1495 13.75 11.8315 13.75 11.5C13.75 11.1685 13.6183 10.8505 13.3839 10.6161C13.1495 10.3817 12.8315 10.25 12.5 10.25H10C9.66848 10.25 9.35054 10.3817 9.11612 10.6161C8.8817 10.8505 8.75 11.1685 8.75 11.5C8.75 11.8315 8.8817 12.1495 9.11612 12.3839C9.35054 12.6183 9.66848 12.75 10 12.75H12.5ZM15 17.75C15.3315 17.75 15.6495 17.6183 15.8839 17.3839C16.1183 17.1495 16.25 16.8315 16.25 16.5C16.25 16.1685 16.1183 15.8505 15.8839 15.6161C15.6495 15.3817 15.3315 15.25 15 15.25H10C9.66848 15.25 9.35054 15.3817 9.11612 15.6161C8.8817 15.8505 8.75 16.1685 8.75 16.5C8.75 16.8315 8.8817 17.1495 9.11612 17.3839C9.35054 17.6183 9.66848 17.75 10 17.75H15ZM3.75 21.5C3.44383 21.5 3.14833 21.3876 2.91954 21.1841C2.69074 20.9807 2.54457 20.7003 2.50875 20.3963L2.5 20.25V19H3.75V21.5Z" fill="white"/>
</svg>
