<svg width="40" height="40" viewBox="0 0 40 40" fill="none" xmlns="http://www.w3.org/2000/svg">
<rect width="40" height="40" rx="8" fill="#BFA01D"/>
<path d="M15 10H14.0002C12.6001 10 11.8995 10 11.3647 10.2725C10.8943 10.5122 10.5122 10.8943 10.2725 11.3647C10 11.8995 10 12.6001 10 14.0002V15M15 10H25M15 10V7.5M25 10H26.0002C27.4004 10 28.0995 10 28.6342 10.2725C29.1046 10.5122 29.4881 10.8943 29.7278 11.3647C30 11.899 30 12.5987 30 13.9961V15M25 10V7.5M10 15V26.0002C10 27.4004 10 28.1001 10.2725 28.6349C10.5122 29.1053 10.8943 29.4881 11.3647 29.7278C11.899 30 12.5987 30 13.9961 30H26.0039C27.4013 30 28.1 30 28.6342 29.7278C29.1046 29.4881 29.4881 29.1053 29.7278 28.6349C30 28.1006 30 27.4019 30 26.0045V15M10 15H30M25 25H25.0025L25.0024 25.0025L25 25.0024V25ZM20 25H20.0025L20.0024 25.0025L20 25.0024V25ZM15 25H15.0025L15.0024 25.0025L15 25.0024V25ZM25.0024 20V20.0025L25 20.0024V20H25.0024ZM20 20H20.0025L20.0024 20.0025L20 20.0024V20ZM15 20H15.0025L15.0024 20.0025L15 20.0024V20Z" stroke="white" stroke-width="2.5" stroke-linecap="round" stroke-linejoin="round"/>
</svg>
