<svg width="30" height="30" viewBox="0 0 30 30" fill="none" xmlns="http://www.w3.org/2000/svg">
<path d="M3.75 28.75V20C3.75 18.2708 4.35958 16.7971 5.57875 15.5788C6.79792 14.3604 8.27167 13.7508 10 13.75H11.25V3.75C11.25 3.0625 11.495 2.47417 11.985 1.985C12.475 1.49583 13.0633 1.25083 13.75 1.25H16.25C16.9375 1.25 17.5262 1.495 18.0163 1.985C18.5063 2.475 18.7508 3.06333 18.75 3.75V13.75H20C21.7292 13.75 23.2033 14.3596 24.4225 15.5788C25.6417 16.7979 26.2508 18.2717 26.25 20V28.75H3.75ZM6.25 26.25H8.75V22.5C8.75 22.1458 8.87 21.8492 9.11 21.61C9.35 21.3708 9.64667 21.2508 10 21.25C10.3533 21.2492 10.6504 21.3692 10.8913 21.61C11.1321 21.8508 11.2517 22.1475 11.25 22.5V26.25H13.75V22.5C13.75 22.1458 13.87 21.8492 14.11 21.61C14.35 21.3708 14.6467 21.2508 15 21.25C15.3533 21.2492 15.6504 21.3692 15.8913 21.61C16.1321 21.8508 16.2517 22.1475 16.25 22.5V26.25H18.75V22.5C18.75 22.1458 18.87 21.8492 19.11 21.61C19.35 21.3708 19.6467 21.2508 20 21.25C20.3533 21.2492 20.6504 21.3692 20.8912 21.61C21.1321 21.8508 21.2517 22.1475 21.25 22.5V26.25H23.75V20C23.75 18.9583 23.3854 18.0729 22.6562 17.3438C21.9271 16.6146 21.0417 16.25 20 16.25H10C8.95833 16.25 8.07292 16.6146 7.34375 17.3438C6.61458 18.0729 6.25 18.9583 6.25 20V26.25ZM16.25 13.75V3.75H13.75V13.75H16.25Z" fill="#BFA01D"/>
</svg>
