<svg width="26" height="26" viewBox="0 0 26 26" fill="none" xmlns="http://www.w3.org/2000/svg">
<path d="M24.9816 12.7993L14.3264 1.52343L13.6122 0.767226C13.4495 0.596063 13.2294 0.5 13.0001 0.5C12.7707 0.5 12.5506 0.596063 12.3879 0.767226L1.01853 12.7993C0.851787 12.9752 0.720005 13.1846 0.630966 13.4153C0.541926 13.646 0.497434 13.8932 0.500114 14.1424C0.511144 15.1701 1.3191 15.9905 2.28976 15.9905H3.46171V25.5H22.5384V15.9905H23.7352C24.2067 15.9905 24.6507 15.7949 24.9843 15.4416C25.1486 15.2682 25.2788 15.0621 25.3673 14.835C25.4558 14.608 25.5009 14.3646 25.5 14.119C25.5 13.6227 25.3152 13.1526 24.9816 12.7993ZM14.5443 23.3978H11.4558V17.4416H14.5443V23.3978ZM20.553 13.8884V23.3978H16.3091V16.7409C16.3091 16.0956 15.8155 15.573 15.2061 15.573H10.794C10.1846 15.573 9.691 16.0956 9.691 16.7409V23.3978H5.44714V13.8884H2.7999L13.0028 3.09423L13.6398 3.76868L23.203 13.8884H20.553Z" fill="#BFA01D"/>
</svg>
