<svg width="30" height="30" viewBox="0 0 30 30" fill="none" xmlns="http://www.w3.org/2000/svg">
<g clip-path="url(#clip0_434_1273)">
<path fill-rule="evenodd" clip-rule="evenodd" d="M23.4375 11.2504C23.4414 13.0583 22.8607 14.819 21.7819 16.2698L15 25.3129L8.21813 16.2698C7.42407 15.197 6.89586 13.9511 6.67686 12.6345C6.45786 11.3179 6.55433 9.96811 6.95834 8.69603C7.36235 7.42395 8.06239 6.26586 9.00093 5.31689C9.93948 4.36792 11.0898 3.65514 12.3573 3.2371C13.6249 2.81907 14.9735 2.7077 16.2924 2.91214C17.6114 3.11659 18.863 3.63102 19.9445 4.41317C21.026 5.19533 21.9065 6.22289 22.5138 7.41147C23.121 8.60004 23.4376 9.91571 23.4375 11.2504ZM26.25 11.2504C26.25 13.7629 25.4269 16.0804 24.0375 17.9517L16.7569 27.6567L15 30.0004L13.2413 27.6567L5.9625 17.9517C4.90254 16.5218 4.19695 14.8609 3.90372 13.1054C3.61049 11.3498 3.73799 9.54975 4.27573 7.85306C4.81347 6.15636 5.74611 4.61147 6.99703 3.34532C8.24794 2.07916 9.78142 1.12788 11.4715 0.569632C13.1615 0.0113823 14.9599 -0.137902 16.7189 0.134046C18.4779 0.405993 20.1472 1.09141 21.5898 2.13398C23.0323 3.17655 24.2069 4.54652 25.0171 6.13133C25.8272 7.71613 26.2498 9.47054 26.25 11.2504ZM15 15.0004C15.9946 15.0004 16.9484 14.6053 17.6517 13.9021C18.3549 13.1988 18.75 12.245 18.75 11.2504C18.75 10.2559 18.3549 9.30202 17.6517 8.59876C16.9484 7.8955 15.9946 7.50041 15 7.50041C14.0054 7.50041 13.0516 7.8955 12.3484 8.59876C11.6451 9.30202 11.25 10.2559 11.25 11.2504C11.25 12.245 11.6451 13.1988 12.3484 13.9021C13.0516 14.6053 14.0054 15.0004 15 15.0004Z" fill="#BFA01D"/>
</g>
<defs>
<clipPath id="clip0_434_1273">
<rect width="30" height="30" fill="white"/>
</clipPath>
</defs>
</svg>
