<svg width="30" height="30" viewBox="0 0 30 30" fill="none" xmlns="http://www.w3.org/2000/svg">
<path d="M19.999 26.25C20.9555 26.2501 21.8759 25.8846 22.5718 25.2284C23.2678 24.5722 23.6867 23.6749 23.7428 22.72L23.749 22.5V10H24.6865C25.4953 10 26.1615 9.385 26.2415 8.5975L26.249 8.4375V6.25C26.2491 5.29349 25.8836 4.37311 25.2274 3.67718C24.5712 2.98124 23.6739 2.56236 22.719 2.50625L22.499 2.5H9.99902C9.04251 2.49995 8.12213 2.86541 7.4262 3.5216C6.73026 4.1778 6.31139 5.07513 6.25527 6.03L6.24902 6.25V18.75H4.06152C3.6747 18.7498 3.30156 18.8931 3.01432 19.1522C2.72707 19.4113 2.54613 19.7677 2.50652 20.1525L2.49902 20.3125V22.5C2.49897 23.4565 2.86443 24.3769 3.52063 25.0728C4.17683 25.7688 5.07416 26.1876 6.02902 26.2437L6.24902 26.25H19.999ZM19.999 23.75H8.74902V6.25C8.74902 5.91848 8.88072 5.60054 9.11514 5.36612C9.34956 5.13169 9.6675 5 9.99902 5C10.3305 5 10.6485 5.13169 10.8829 5.36612C11.1173 5.60054 11.249 5.91848 11.249 6.25V8.4375C11.249 9.3 11.949 10 12.8115 10H21.249V22.5C21.249 22.8315 21.1173 23.1495 20.8829 23.3839C20.6485 23.6183 20.3305 23.75 19.999 23.75ZM23.749 7.5H13.749V6.25C13.749 5.8125 13.674 5.39125 13.5365 5H22.499C22.8305 5 23.1485 5.13169 23.3829 5.36612C23.6173 5.60054 23.749 5.91848 23.749 6.25V7.5ZM14.999 15C15.3305 15 15.6485 14.8683 15.8829 14.6339C16.1173 14.3995 16.249 14.0815 16.249 13.75C16.249 13.4185 16.1173 13.1005 15.8829 12.8661C15.6485 12.6317 15.3305 12.5 14.999 12.5H12.499C12.1675 12.5 11.8496 12.6317 11.6151 12.8661C11.3807 13.1005 11.249 13.4185 11.249 13.75C11.249 14.0815 11.3807 14.3995 11.6151 14.6339C11.8496 14.8683 12.1675 15 12.499 15H14.999ZM17.499 20C17.8305 20 18.1485 19.8683 18.3829 19.6339C18.6173 19.3995 18.749 19.0815 18.749 18.75C18.749 18.4185 18.6173 18.1005 18.3829 17.8661C18.1485 17.6317 17.8305 17.5 17.499 17.5H12.499C12.1675 17.5 11.8496 17.6317 11.6151 17.8661C11.3807 18.1005 11.249 18.4185 11.249 18.75C11.249 19.0815 11.3807 19.3995 11.6151 19.6339C11.8496 19.8683 12.1675 20 12.499 20H17.499ZM6.24902 23.75C5.94286 23.75 5.64735 23.6376 5.41856 23.4341C5.18976 23.2307 5.04359 22.9503 5.00777 22.6463L4.99902 22.5V21.25H6.24902V23.75Z" fill="#BFA01D"/>
</svg>
