<svg width="28" height="26" viewBox="0 0 28 26" fill="none" xmlns="http://www.w3.org/2000/svg">
<path d="M20.875 17.375C20.875 18.7625 19.7625 19.875 18.375 19.875C16.9875 19.875 15.875 18.7625 15.875 17.375C15.875 15.9875 17 14.875 18.375 14.875C19.75 14.875 20.875 16 20.875 17.375ZM9.625 14.875C8.25 14.875 7.125 16 7.125 17.375C7.125 18.75 8.25 19.875 9.625 19.875C11 19.875 12.125 18.7625 12.125 17.375C12.125 15.9875 11.0125 14.875 9.625 14.875ZM27.75 16.75V20.5C27.75 21.1875 27.1875 21.75 26.5 21.75H25.25V23C25.25 24.3875 24.1375 25.5 22.75 25.5H5.25C4.58696 25.5 3.95107 25.2366 3.48223 24.7678C3.01339 24.2989 2.75 23.663 2.75 23V21.75H1.5C0.8125 21.75 0.25 21.1875 0.25 20.5V16.75C0.25 16.0625 0.8125 15.5 1.5 15.5H2.75C2.75 10.6625 6.6625 6.75 11.5 6.75H12.75V5.1625C12 4.7375 11.5 3.925 11.5 3C11.5 1.625 12.625 0.5 14 0.5C15.375 0.5 16.5 1.625 16.5 3C16.5 3.925 16 4.7375 15.25 5.1625V6.75H16.5C21.3375 6.75 25.25 10.6625 25.25 15.5H26.5C27.1875 15.5 27.75 16.0625 27.75 16.75ZM25.25 18H22.75V15.5C22.75 12.05 19.95 9.25 16.5 9.25H11.5C8.05 9.25 5.25 12.05 5.25 15.5V18H2.75V19.25H5.25V23H22.75V19.25H25.25V18Z" fill="#BFA01D"/>
</svg>
