<svg width="24" height="26" viewBox="0 0 24 26" fill="none" xmlns="http://www.w3.org/2000/svg">
<path d="M7 4H6.00024C4.60011 4 3.89953 4 3.36475 4.27248C2.89434 4.51217 2.51217 4.89434 2.27248 5.36475C2 5.89953 2 6.60011 2 8.00024V9M7 4H17M7 4V1.5M17 4H18.0002C19.4004 4 20.0995 4 20.6342 4.27248C21.1046 4.51217 21.4881 4.89434 21.7278 5.36475C22 5.899 22 6.59874 22 7.99614V9M17 4V1.5M2 9V20.0002C2 21.4004 2 22.1001 2.27248 22.6349C2.51217 23.1053 2.89434 23.4881 3.36475 23.7278C3.899 24 4.59874 24 5.99614 24H18.0039C19.4013 24 20.1 24 20.6342 23.7278C21.1046 23.4881 21.4881 23.1053 21.7278 22.6349C22 22.1006 22 21.4019 22 20.0045V9M2 9H22M17 19H17.0025L17.0024 19.0025L17 19.0024V19ZM12 19H12.0025L12.0024 19.0025L12 19.0024V19ZM7 19H7.0025L7.00244 19.0025L7 19.0024V19ZM17.0024 14V14.0025L17 14.0024V14H17.0024ZM12 14H12.0025L12.0024 14.0025L12 14.0024V14ZM7 14H7.0025L7.00244 14.0025L7 14.0024V14Z" stroke="#BFA01D" stroke-width="2.5" stroke-linecap="round" stroke-linejoin="round"/>
</svg>
