<svg width="319" height="256" viewBox="0 0 319 256" fill="none" xmlns="http://www.w3.org/2000/svg">
<g clip-path="url(#clip0_1308_8969)">
<path d="M318.744 223.42H0.255859V223.579H318.744V223.42Z" fill="#EBEBEB"/>
<path d="M151.219 195.012H28.2255C27.262 195.01 26.3385 194.626 25.6578 193.944C24.977 193.262 24.5947 192.338 24.5947 191.375V18.4803C24.6031 17.5223 24.9891 16.6063 25.669 15.9312C26.3488 15.2562 27.2675 14.8766 28.2255 14.875H151.219C152.184 14.875 153.109 15.2582 153.791 15.9403C154.473 16.6224 154.856 17.5475 154.856 18.5121V191.375C154.856 192.339 154.473 193.265 153.791 193.947C153.109 194.629 152.184 195.012 151.219 195.012ZM28.2255 15.0024C27.3042 15.0041 26.4212 15.3712 25.7704 16.0233C25.1195 16.6753 24.754 17.559 24.754 18.4803V191.375C24.754 192.296 25.1195 193.18 25.7704 193.832C26.4212 194.484 27.3042 194.851 28.2255 194.853H151.219C152.141 194.851 153.025 194.484 153.677 193.832C154.329 193.18 154.695 192.297 154.697 191.375V18.4803C154.695 17.5584 154.329 16.6748 153.677 16.0229C153.025 15.371 152.141 15.0041 151.219 15.0024H28.2255Z" fill="#EBEBEB"/>
<path d="M289.003 195.012H166.003C165.039 195.01 164.115 194.627 163.433 193.945C162.752 193.263 162.368 192.339 162.366 191.375V18.4803C162.376 17.5217 162.764 16.6057 163.445 15.9308C164.125 15.256 165.045 14.8766 166.003 14.875H289.003C289.96 14.8783 290.877 15.2586 291.556 15.9335C292.234 16.6083 292.619 17.5234 292.628 18.4803V191.375C292.628 192.337 292.246 193.26 291.567 193.942C290.888 194.624 289.966 195.009 289.003 195.012ZM166.003 15.0024C165.081 15.0041 164.198 15.371 163.546 16.0229C162.894 16.6748 162.527 17.5584 162.525 18.4803V191.375C162.527 192.297 162.894 193.18 163.546 193.832C164.198 194.484 165.081 194.851 166.003 194.853H289.003C289.925 194.851 290.809 194.484 291.461 193.832C292.113 193.18 292.48 192.297 292.481 191.375V18.4803C292.48 17.5584 292.113 16.6748 291.461 16.0229C290.809 15.371 289.925 15.0041 289.003 15.0024H166.003Z" fill="#EBEBEB"/>
<path d="M286.831 229.484H266.722V229.644H286.831V229.484Z" fill="#EBEBEB"/>
<path d="M213.86 227.76H192.579V227.919H213.86V227.76Z" fill="#EBEBEB"/>
<path d="M292.64 235.402H252.874V235.562H292.64V235.402Z" fill="#EBEBEB"/>
<path d="M45.9209 234.334H33.6719V234.493H45.9209V234.334Z" fill="#EBEBEB"/>
<path d="M70.8907 234.334H51.5967V234.493H70.8907V234.334Z" fill="#EBEBEB"/>
<path d="M155.768 231.645H121.015V231.804H155.768V231.645Z" fill="#EBEBEB"/>
<path d="M291.003 142.424C284.544 139.716 273.843 142.328 264.977 153.08C260.881 158.049 256.932 165.336 255.868 172.795C255.938 164.285 256.027 155.144 256.11 146.513C257.087 142.28 258.628 138.196 260.69 134.372C267.193 121.301 272.569 122.747 281.404 112.518C296.099 95.4975 304.52 63.3876 289.901 76.2099C276.646 87.8029 270.232 99.4086 265.779 109.479C259.753 123.091 257.333 132.589 256.154 142.118C256.237 134.016 256.314 126.576 256.384 120.836C256.613 102.116 257.123 96.0963 257.218 94.2363C257.448 89.7329 258.932 87.1086 259.346 86.4652C262.83 80.9936 268.302 77.4138 273.659 71.1778C286.15 56.6611 293.36 38.692 287.341 36.9976C281.054 35.2587 272.792 43.1827 263.613 61.7888C258.352 72.4517 257.008 74.9742 255.97 95.867C255.881 97.6824 255.479 104.524 255.288 114.027C253.804 103.804 250.982 93.6439 246.058 86.9111C236.561 73.9232 229.338 72.6811 224.076 73.9232C218.815 75.1653 221.019 88.8029 226.955 96.0899C235.873 107.059 250.778 104.727 255.193 119.32C254.97 132.206 254.81 148.526 254.721 163.724C253.218 155.877 251.645 149.348 248.192 143.201C241.772 131.773 233.873 126.786 228.446 132.168C225.064 135.519 228.987 144.908 236.058 148.73C243.237 152.641 249.129 158.049 251.409 161.304C251.938 162.062 253.702 164.966 254.709 166.641C254.613 185.197 254.626 201.573 254.785 207.16L255.683 207.242C255.626 205.803 255.683 196.363 255.76 183.872C257.326 168.285 268.333 167.438 275.372 164.469C287.952 159.151 297.462 145.137 291.003 142.424Z" fill="#E6E6E6"/>
<path d="M246.129 223.419H264.69C265.147 223.446 265.599 223.321 265.977 223.064C266.355 222.807 266.637 222.433 266.78 221.998L268.105 198.959H242.728L244.04 221.979C244.18 222.416 244.461 222.795 244.839 223.055C245.217 223.316 245.671 223.444 246.129 223.419Z" fill="#E6E6E6"/>
<path d="M243.192 206.817H267.639C268.225 206.817 268.716 206.046 268.786 205.027L269.283 197.256C269.359 196.058 268.824 195.014 268.142 195.014H242.663C241.975 195.014 241.44 196.058 241.523 197.256L242.02 205.027C242.109 206.046 242.606 206.817 243.192 206.817Z" fill="#F5F5F5"/>
<path d="M118.734 173.783H94.6367V219.206H118.734V173.783Z" fill="#F0F0F0"/>
<path d="M218.108 219.203H99.2676V223.42H218.108V219.203Z" fill="#F0F0F0"/>
<path d="M118.733 219.197H222.732V173.774H118.733V219.197Z" fill="#FAFAFA"/>
<path d="M128.212 193.285H213.261V179.31H128.212V193.285Z" fill="#F0F0F0"/>
<path d="M128.212 211.24H213.261V197.265H128.212V211.24Z" fill="#F0F0F0"/>
<path d="M181.17 177.572H160.303C159.494 177.572 158.838 178.228 158.838 179.037V179.101C158.838 179.91 159.494 180.566 160.303 180.566H181.17C181.979 180.566 182.635 179.91 182.635 179.101V179.037C182.635 178.228 181.979 177.572 181.17 177.572Z" fill="#FAFAFA"/>
<path d="M181.17 195.527H160.303C159.494 195.527 158.838 196.183 158.838 196.992V197.056C158.838 197.865 159.494 198.521 160.303 198.521H181.17C181.979 198.521 182.635 197.865 182.635 197.056V196.992C182.635 196.183 181.979 195.527 181.17 195.527Z" fill="#FAFAFA"/>
<path d="M225.95 169.705H118.74V173.775H225.95V169.705Z" fill="#F0F0F0"/>
<path d="M91.267 173.783H118.733V169.713H91.267V173.783Z" fill="#E6E6E6"/>
<path d="M71.495 187.802C68.7432 186.363 63.915 187.108 59.5899 191.522C57.2947 193.844 55.6495 196.728 54.8189 199.886C55.1693 196.134 55.5578 192.096 55.9209 188.286C56.5148 186.453 57.3503 184.708 58.4051 183.095C61.7747 177.566 64.0997 178.407 68.3865 174.222C75.5334 167.26 80.4891 153.387 73.5269 158.489C68.5449 162.105 64.4644 166.822 61.6027 172.273C58.4179 178.063 56.991 182.165 56.1056 186.331C56.4496 182.757 56.7426 179.471 57.0165 176.936C57.8318 168.655 58.2905 166.03 58.3987 165.215C58.5186 164.009 58.9439 162.854 59.6345 161.858C61.4053 159.572 63.9532 158.196 66.5393 155.648C72.6097 149.705 76.4761 142.029 73.8836 141.061C71.1701 140.055 67.2145 143.246 62.4563 151.113C59.7237 155.629 59.0357 156.692 57.7745 165.884C57.6599 166.687 57.2267 169.706 56.7808 173.884C56.5133 169.311 55.6534 164.718 53.7297 161.553C50.0289 155.45 46.8822 154.629 44.5127 155.011C42.1431 155.393 42.6017 161.47 44.9394 164.916C48.4747 170.101 55.1311 169.636 56.5388 176.254C55.9528 181.936 55.2648 189.146 54.6278 195.86C54.2648 192.331 53.8189 189.388 52.5258 186.541C50.1244 181.248 46.793 178.745 44.2451 180.917C42.6272 182.267 44.0031 186.56 46.9841 188.56C49.9652 190.56 52.4048 193.172 53.2902 194.701C53.494 195.051 54.1629 196.408 54.5641 197.185C53.7616 205.332 53.1628 212.562 53.0227 215.033L53.4367 215.09C53.4685 214.453 53.8444 210.288 54.3603 204.771C55.6343 197.937 60.539 197.981 63.7621 196.937C69.514 195.077 74.2467 189.242 71.495 187.802Z" fill="#F0F0F0"/>
<path d="M28.8813 173.609C32.442 172.004 38.436 173.297 43.5318 179.163C46.2398 182.241 48.0935 185.974 48.9078 189.992C48.7359 185.246 48.5575 180.151 48.3792 175.341C47.7703 172.996 46.8513 170.743 45.6465 168.64C41.8247 161.449 38.8436 162.334 33.7669 156.761C25.3142 147.486 20.1356 129.708 28.4864 136.626C34.4701 141.54 39.2431 147.764 42.4362 154.818C45.9969 162.322 47.4874 167.558 48.29 172.876C48.1244 168.36 47.9651 164.213 47.8377 161.009C47.4364 150.576 47.0606 147.225 46.9778 146.187C46.9192 144.67 46.4812 143.192 45.7038 141.887C43.6783 138.887 40.608 136.976 37.4869 133.575C30.3081 125.664 26.0213 115.74 29.3463 114.72C32.8306 113.657 37.5569 117.95 42.9521 128.186C46.0478 134.059 46.8313 135.441 47.7358 147.079C47.8186 148.092 48.1371 151.901 48.3728 157.2C49.048 151.468 50.4684 145.773 53.1183 141.913C58.2141 134.524 62.227 133.728 65.1762 134.339C68.1254 134.951 67.0871 142.62 63.9023 146.748C59.0867 152.996 50.7487 151.913 48.5065 160.124C48.8187 167.303 49.1435 176.405 49.4302 184.877C50.1499 180.482 50.9334 176.813 52.7615 173.335C56.1757 166.863 60.5072 163.965 63.5901 166.889C65.5011 168.704 63.4819 173.997 59.5899 176.252C55.698 178.507 52.4876 181.698 51.2647 183.546C50.978 183.972 50.0417 185.622 49.5066 186.571C49.8378 196.916 50.0735 206.05 50.0671 209.165L49.5385 209.209C49.5385 208.407 49.3856 203.145 49.1435 196.177C48.0288 187.495 41.8884 187.202 37.92 185.654C30.8305 182.89 25.3206 175.214 28.8813 173.609Z" fill="#E6E6E6"/>
<path d="M43.9465 223.42H60.4124C60.8193 223.442 61.2221 223.329 61.5583 223.098C61.8945 222.868 62.1455 222.533 62.2723 222.146L63.438 201.725H40.9209L42.0929 222.146C42.2176 222.533 42.4672 222.869 42.8025 223.099C43.1379 223.33 43.5402 223.442 43.9465 223.42Z" fill="#E6E6E6"/>
<path d="M41.3339 208.695H63.0229C63.5452 208.695 63.9784 208.007 64.0421 207.102L64.4816 200.21C64.5517 199.146 64.0803 198.223 63.4688 198.223H40.8944C40.2574 198.223 39.8115 199.146 39.8752 200.21L40.3211 207.102C40.3848 208.007 40.8179 208.695 41.3339 208.695Z" fill="#F5F5F5"/>
<path d="M174.297 30.7109H38.5957V107.441H174.297V30.7109Z" fill="#E6E6E6"/>
<path d="M178.539 30.7109H39.3154V107.441H178.539V30.7109Z" fill="#F5F5F5"/>
<path d="M175.15 101.394V36.7602C175.15 35.2897 173.958 34.0977 172.488 34.0977L45.3601 34.0977C43.8896 34.0977 42.6975 35.2897 42.6975 36.7602V101.394C42.6975 102.865 43.8896 104.057 45.3601 104.057L172.488 104.057C173.958 104.057 175.15 102.865 175.15 101.394Z" fill="white"/>
<path d="M159.499 252.189C227.708 252.189 283.003 248.96 283.003 244.978C283.003 240.996 227.708 237.768 159.499 237.768C91.2904 237.768 35.9961 240.996 35.9961 244.978C35.9961 248.96 91.2904 252.189 159.499 252.189Z" fill="#F5F5F5"/>
<path d="M256.265 178.841H240.978V178.204H256.265C258.063 178.167 259.819 177.655 261.355 176.72C262.891 175.784 264.152 174.459 265.011 172.879L265.571 173.185C264.658 174.865 263.316 176.274 261.681 177.268C260.046 178.261 258.178 178.804 256.265 178.841Z" fill="#BFA01D"/>
<path d="M237.951 178.203H231.689V178.84H237.951V178.203Z" fill="#BFA01D"/>
<path d="M256.264 176.613H77.4013C76.4206 176.632 75.4471 176.442 74.5455 176.056C73.6439 175.67 72.8348 175.096 72.172 174.373C71.5093 173.65 71.008 172.794 70.7015 171.862C70.395 170.931 70.2904 169.944 70.3945 168.969L80.0575 58.1351C80.2735 56.0725 81.2332 54.1591 82.7571 52.7524C84.281 51.3458 86.2649 50.542 88.3382 50.4914H267.201C268.181 50.4733 269.154 50.6639 270.056 51.0504C270.957 51.4369 271.765 52.0106 272.428 52.7334C273.09 53.4562 273.592 54.3116 273.899 55.2429C274.206 56.1742 274.311 57.16 274.208 58.1351L264.602 168.969C264.385 171.041 263.417 172.962 261.881 174.37C260.345 175.778 258.347 176.576 256.264 176.613Z" fill="#BFA01D"/>
<path d="M252.537 174.286H78.1328C77.2978 174.298 76.4697 174.132 75.7035 173.8C74.9374 173.468 74.2508 172.976 73.6892 172.358C73.1277 171.74 72.7042 171.009 72.4468 170.215C72.1893 169.42 72.1039 168.58 72.1962 167.75L80.9992 66.7831C81.0518 66.2771 81.2873 65.8077 81.6614 65.4629C82.0355 65.1181 82.5225 64.9216 83.0312 64.9104H266.716C266.956 64.9063 267.194 64.9532 267.414 65.0481C267.634 65.1431 267.831 65.2838 267.993 65.461C268.154 65.6382 268.276 65.8477 268.35 66.0757C268.425 66.3037 268.449 66.5448 268.423 66.7831L259.614 167.75C259.435 169.516 258.617 171.155 257.314 172.359C256.01 173.563 254.311 174.248 252.537 174.286Z" fill="white"/>
<path d="M100.364 59.8858C99.1604 59.9063 97.9667 59.6707 96.8615 59.1945C95.7564 58.7183 94.7652 58.0125 93.9538 57.124C93.1423 56.2354 92.5291 55.1844 92.155 54.0407C91.7808 52.897 91.6542 51.6868 91.7835 50.4904C92.0454 47.9513 93.2256 45.5952 95.1023 43.8651C96.9791 42.1349 99.4232 41.1499 101.975 41.095C103.178 41.0744 104.372 41.31 105.477 41.7862C106.581 42.2624 107.572 42.9683 108.383 43.8571C109.194 44.7458 109.807 45.7969 110.18 46.9406C110.554 48.0843 110.679 49.2944 110.549 50.4904H106.727C106.804 49.7801 106.729 49.0616 106.507 48.3827C106.284 47.7037 105.92 47.0798 105.438 46.5526C104.956 46.0253 104.367 45.6068 103.711 45.3247C103.054 45.0427 102.345 44.9037 101.631 44.9169C100.114 44.9447 98.6596 45.527 97.5424 46.5538C96.4252 47.5806 95.7226 48.981 95.5672 50.4904C95.4902 51.2007 95.5653 51.9192 95.7876 52.5981C96.0098 53.2771 96.3741 53.9009 96.8561 54.4282C97.3382 54.9555 97.927 55.374 98.5834 55.6561C99.2398 55.9381 99.9487 56.0771 100.663 56.0639L100.364 59.8858Z" fill="#263238"/>
<path d="M138.169 59.8858C136.964 59.91 135.768 59.677 134.659 59.2025C133.551 58.7279 132.557 58.0227 131.742 57.1337C130.928 56.2447 130.313 55.1924 129.937 54.0469C129.561 52.9014 129.434 51.6889 129.564 50.4904C129.826 47.9513 131.006 45.5952 132.883 43.8651C134.759 42.1349 137.204 41.1499 139.755 41.095C140.958 41.0744 142.152 41.31 143.257 41.7862C144.362 42.2624 145.353 42.9683 146.163 43.8571C146.974 44.7458 147.587 45.7969 147.96 46.9406C148.334 48.0843 148.46 49.2944 148.329 50.4904H144.507C144.584 49.7801 144.509 49.0616 144.287 48.3827C144.065 47.7037 143.7 47.0798 143.218 46.5526C142.736 46.0253 142.148 45.6068 141.491 45.3247C140.835 45.0427 140.126 44.9037 139.412 44.9169C137.894 44.9447 136.44 45.527 135.323 46.5538C134.205 47.5806 133.503 48.981 133.348 50.4904C133.272 51.2004 133.347 51.9185 133.57 52.597C133.793 53.2755 134.157 53.899 134.639 54.426C135.121 54.953 135.709 55.3716 136.365 55.654C137.021 55.9364 137.729 56.0761 138.443 56.0639L138.169 59.8858Z" fill="#263238"/>
<path d="M175.973 59.8858C174.771 59.9054 173.578 59.6691 172.473 59.1925C171.369 58.7159 170.379 58.01 169.568 57.1215C168.757 56.2331 168.144 55.1824 167.771 54.0391C167.397 52.8959 167.27 51.6862 167.4 50.4904C167.659 47.9502 168.838 45.5926 170.716 43.8619C172.593 42.1313 175.039 41.1471 177.591 41.095C178.794 41.0744 179.988 41.31 181.093 41.7862C182.198 42.2624 183.188 42.9683 183.999 43.8571C184.81 44.7458 185.423 45.7969 185.796 46.9406C186.17 48.0843 186.295 49.2944 186.165 50.4904H182.343C182.421 49.7799 182.347 49.061 182.125 48.3816C181.903 47.7022 181.539 47.0779 181.057 46.5504C180.574 46.0229 179.985 45.6043 179.328 45.3226C178.671 45.041 177.962 44.9026 177.247 44.9169C175.731 44.9448 174.277 45.5274 173.161 46.5543C172.045 47.5813 171.344 48.9815 171.19 50.4904C171.113 51.2007 171.188 51.9192 171.41 52.5981C171.632 53.2771 171.997 53.9009 172.479 54.4282C172.961 54.9555 173.55 55.374 174.206 55.6561C174.862 55.9381 175.571 56.0771 176.286 56.0639L175.973 59.8858Z" fill="#263238"/>
<path d="M213.778 59.8858C212.575 59.9054 211.382 59.6691 210.278 59.1925C209.174 58.7159 208.183 58.01 207.373 57.1215C206.562 56.2331 205.949 55.1824 205.575 54.0391C205.202 52.8959 205.075 51.6862 205.204 50.4904C205.465 47.9507 206.645 45.5939 208.522 43.8635C210.399 42.1331 212.844 41.1485 215.396 41.095C216.599 41.0745 217.793 41.3101 218.898 41.7863C220.003 42.2624 220.994 42.9682 221.806 43.8568C222.617 44.7454 223.231 45.7964 223.605 46.9401C223.979 48.0838 224.105 49.294 223.976 50.4904H220.154C220.231 49.7801 220.156 49.0616 219.934 48.3827C219.712 47.7037 219.347 47.0798 218.865 46.5526C218.383 46.0253 217.794 45.6068 217.138 45.3247C216.482 45.0427 215.773 44.9036 215.058 44.9168C213.542 44.9448 212.088 45.5273 210.972 46.5543C209.856 47.5813 209.155 48.9815 209.001 50.4904C208.924 51.2006 208.999 51.9191 209.221 52.5981C209.443 53.2771 209.808 53.9009 210.29 54.4282C210.772 54.9554 211.361 55.374 212.017 55.6561C212.673 55.9381 213.382 56.0771 214.097 56.0639L213.778 59.8858Z" fill="#263238"/>
<path d="M251.582 59.8858C250.379 59.9054 249.186 59.6691 248.082 59.1925C246.977 58.7159 245.987 58.01 245.176 57.1215C244.365 56.2331 243.753 55.1824 243.379 54.0391C243.005 52.8959 242.879 51.6862 243.008 50.4904C243.269 47.9507 244.448 45.5939 246.325 43.8635C248.203 42.1331 250.647 41.1485 253.2 41.095C254.403 41.0745 255.597 41.3101 256.702 41.7863C257.807 42.2624 258.798 42.9682 259.61 43.8568C260.421 44.7454 261.034 45.7964 261.408 46.9401C261.783 48.0838 261.909 49.294 261.78 50.4904H257.958C258.035 49.7801 257.96 49.0616 257.738 48.3827C257.515 47.7037 257.151 47.0798 256.669 46.5526C256.187 46.0253 255.598 45.6068 254.942 45.3247C254.285 45.0427 253.576 44.9036 252.862 44.9168C251.346 44.9462 249.893 45.5292 248.777 46.5559C247.661 47.5826 246.96 48.982 246.805 50.4904C246.728 51.2006 246.803 51.9191 247.025 52.5981C247.247 53.2771 247.611 53.9009 248.093 54.4282C248.576 54.9554 249.164 55.374 249.821 55.6561C250.477 55.9381 251.186 56.0771 251.9 56.0639L251.582 59.8858Z" fill="#263238"/>
<path d="M252.08 169.707H79.6692C79.6284 169.708 79.5878 169.7 79.5503 169.684C79.5127 169.668 79.4791 169.644 79.4518 169.614C79.4245 169.584 79.4042 169.548 79.3922 169.509C79.3802 169.47 79.3769 169.428 79.3825 169.388L87.9753 70.8733C87.9832 70.7871 88.0227 70.7069 88.0862 70.648C88.1497 70.5892 88.2327 70.556 88.3193 70.5548H260.723C260.764 70.5536 260.805 70.5613 260.843 70.5772C260.881 70.5932 260.915 70.6171 260.942 70.6473C260.97 70.6774 260.991 70.7133 261.004 70.7522C261.017 70.7912 261.021 70.8325 261.016 70.8733L252.424 169.388C252.416 169.474 252.376 169.554 252.313 169.613C252.249 169.672 252.166 169.705 252.08 169.707ZM80.045 169.07H251.812L260.354 71.1918H88.5868L80.045 169.07Z" fill="#E0E0E0"/>
<path d="M253.774 150.004H81.389C81.3485 150.005 81.3085 149.996 81.2714 149.98C81.2344 149.963 81.2012 149.939 81.1742 149.909C81.1471 149.879 81.1267 149.844 81.1143 149.805C81.1019 149.767 81.0979 149.726 81.1024 149.686C81.1088 149.599 81.1479 149.518 81.2117 149.459C81.2755 149.4 81.3594 149.367 81.4463 149.367H253.85C253.891 149.366 253.932 149.374 253.97 149.39C254.008 149.406 254.042 149.43 254.069 149.46C254.097 149.49 254.118 149.526 254.131 149.565C254.144 149.604 254.148 149.645 254.143 149.686C254.132 149.775 254.088 149.857 254.02 149.916C253.952 149.975 253.864 150.007 253.774 150.004Z" fill="#E0E0E0"/>
<path d="M255.513 130.303H83.1086C83.0679 130.303 83.0276 130.295 82.9902 130.279C82.9529 130.262 82.9194 130.238 82.8918 130.208C82.8643 130.179 82.8432 130.143 82.8301 130.105C82.817 130.066 82.812 130.025 82.8156 129.985C82.8249 129.898 82.8657 129.818 82.9303 129.759C82.9948 129.7 83.0787 129.667 83.1659 129.666H255.57C255.611 129.665 255.652 129.673 255.69 129.689C255.727 129.705 255.761 129.728 255.789 129.759C255.817 129.789 255.838 129.825 255.851 129.864C255.863 129.903 255.868 129.944 255.863 129.985C255.852 130.071 255.811 130.15 255.747 130.209C255.683 130.267 255.599 130.301 255.513 130.303Z" fill="#E0E0E0"/>
<path d="M257.232 110.596H84.828C84.787 110.597 84.7462 110.589 84.7084 110.574C84.6706 110.558 84.6367 110.534 84.6089 110.504C84.5811 110.473 84.5601 110.438 84.5474 110.399C84.5346 110.36 84.5304 110.318 84.535 110.277C84.5456 110.191 84.5868 110.112 84.6511 110.053C84.7154 109.995 84.7985 109.961 84.8853 109.959H257.289C257.33 109.959 257.37 109.967 257.407 109.983C257.444 110 257.477 110.024 257.504 110.054C257.531 110.084 257.552 110.119 257.564 110.158C257.576 110.197 257.581 110.237 257.576 110.277C257.57 110.364 257.531 110.445 257.467 110.504C257.403 110.563 257.319 110.596 257.232 110.596Z" fill="#E0E0E0"/>
<path d="M258.952 90.8949H86.5477C86.5067 90.8961 86.4659 90.8885 86.4281 90.8725C86.3903 90.8566 86.3564 90.8327 86.3286 90.8025C86.3008 90.7723 86.2799 90.7365 86.2671 90.6975C86.2544 90.6585 86.2501 90.6172 86.2547 90.5764C86.2626 90.4902 86.3021 90.41 86.3656 90.3512C86.4291 90.2924 86.5121 90.2592 86.5987 90.258H259.009C259.05 90.2566 259.09 90.2643 259.128 90.2803C259.166 90.2963 259.199 90.3203 259.226 90.3506C259.254 90.3809 259.274 90.4169 259.286 90.4559C259.298 90.4949 259.301 90.536 259.296 90.5764C259.289 90.6632 259.25 90.7443 259.186 90.8034C259.123 90.8625 259.039 90.8952 258.952 90.8949Z" fill="#E0E0E0"/>
<path d="M230.524 169.707C230.483 169.708 230.442 169.7 230.405 169.684C230.367 169.668 230.334 169.644 230.306 169.614C230.279 169.584 230.259 169.548 230.247 169.509C230.235 169.47 230.231 169.428 230.237 169.388L238.83 70.8733C238.838 70.7871 238.877 70.7069 238.941 70.648C239.004 70.5892 239.087 70.556 239.174 70.5548C239.215 70.5536 239.256 70.5613 239.293 70.5772C239.331 70.5932 239.365 70.6171 239.393 70.6473C239.421 70.6774 239.442 70.7133 239.454 70.7522C239.467 70.7912 239.471 70.8325 239.467 70.8733L230.874 169.388C230.865 169.475 230.824 169.555 230.759 169.614C230.695 169.672 230.611 169.705 230.524 169.707Z" fill="#E0E0E0"/>
<path d="M208.976 169.707C208.935 169.708 208.895 169.7 208.857 169.684C208.819 169.668 208.785 169.644 208.757 169.614C208.73 169.584 208.709 169.548 208.696 169.509C208.683 169.47 208.679 169.429 208.683 169.388L217.276 70.8733C217.286 70.7866 217.326 70.7063 217.391 70.6476C217.456 70.5889 217.539 70.5559 217.627 70.5548C217.667 70.5535 217.708 70.5611 217.745 70.5771C217.783 70.5931 217.817 70.6171 217.844 70.6475C217.871 70.6778 217.892 70.7137 217.904 70.7527C217.916 70.7917 217.919 70.8329 217.913 70.8733L209.32 169.388C209.314 169.475 209.275 169.556 209.211 169.615C209.147 169.674 209.063 169.707 208.976 169.707Z" fill="#E0E0E0"/>
<path d="M187.427 169.707C187.386 169.708 187.345 169.7 187.307 169.684C187.269 169.668 187.235 169.644 187.208 169.614C187.18 169.584 187.159 169.548 187.146 169.509C187.133 169.47 187.129 169.429 187.134 169.388L195.726 70.8733C195.736 70.7866 195.777 70.7063 195.841 70.6476C195.906 70.5889 195.99 70.5559 196.077 70.5548C196.118 70.5535 196.158 70.5611 196.196 70.5771C196.233 70.5931 196.267 70.6171 196.294 70.6475C196.321 70.6778 196.342 70.7137 196.354 70.7527C196.366 70.7917 196.369 70.8329 196.363 70.8733L187.771 169.388C187.763 169.474 187.723 169.555 187.66 169.613C187.596 169.672 187.513 169.705 187.427 169.707Z" fill="#E0E0E0"/>
<path d="M165.872 169.707C165.831 169.708 165.79 169.7 165.752 169.684C165.715 169.668 165.681 169.644 165.653 169.614C165.625 169.584 165.604 169.548 165.591 169.509C165.579 169.47 165.574 169.429 165.579 169.388L174.153 70.8733C174.16 70.7871 174.2 70.7069 174.263 70.648C174.327 70.5892 174.41 70.556 174.497 70.5548C174.538 70.5536 174.578 70.5613 174.616 70.5772C174.654 70.5932 174.688 70.6171 174.716 70.6473C174.743 70.6774 174.764 70.7133 174.777 70.7522C174.79 70.7912 174.794 70.8325 174.79 70.8733L166.222 169.388C166.214 169.475 166.174 169.556 166.109 169.615C166.044 169.674 165.96 169.707 165.872 169.707Z" fill="#E0E0E0"/>
<path d="M144.322 169.707C144.281 169.708 144.24 169.7 144.203 169.684C144.165 169.668 144.131 169.644 144.104 169.614C144.077 169.584 144.057 169.548 144.045 169.509C144.033 169.47 144.029 169.428 144.035 169.388L152.628 70.8733C152.634 70.7866 152.673 70.7055 152.737 70.6464C152.801 70.5873 152.885 70.5546 152.972 70.5548C153.013 70.5536 153.053 70.5613 153.091 70.5772C153.129 70.5932 153.163 70.6171 153.191 70.6473C153.219 70.6774 153.239 70.7133 153.252 70.7522C153.265 70.7912 153.269 70.8325 153.265 70.8733L144.672 169.388C144.663 169.475 144.622 169.555 144.557 169.614C144.493 169.672 144.409 169.705 144.322 169.707Z" fill="#E0E0E0"/>
<path d="M122.773 169.707C122.732 169.708 122.692 169.7 122.654 169.684C122.616 169.668 122.582 169.644 122.554 169.614C122.526 169.584 122.505 169.548 122.493 169.509C122.48 169.47 122.476 169.429 122.48 169.388L131.073 70.8733C131.082 70.7866 131.123 70.7063 131.188 70.6476C131.252 70.5889 131.336 70.5559 131.423 70.5548C131.464 70.5535 131.505 70.5611 131.542 70.5771C131.58 70.5931 131.613 70.6171 131.641 70.6475C131.668 70.6778 131.688 70.7137 131.7 70.7527C131.712 70.7917 131.716 70.8329 131.71 70.8733L123.117 169.388C123.111 169.475 123.072 169.556 123.008 169.615C122.944 169.674 122.86 169.707 122.773 169.707Z" fill="#E0E0E0"/>
<path d="M101.224 169.707C101.183 169.708 101.143 169.7 101.105 169.684C101.067 169.668 101.033 169.644 101.005 169.614C100.978 169.584 100.957 169.548 100.944 169.509C100.931 169.47 100.927 169.429 100.931 169.388L109.524 70.8733C109.534 70.7866 109.574 70.7063 109.639 70.6476C109.704 70.5889 109.787 70.5559 109.875 70.5548C109.915 70.5535 109.956 70.5611 109.994 70.5771C110.031 70.5931 110.065 70.6171 110.092 70.6475C110.119 70.6778 110.14 70.7137 110.152 70.7527C110.164 70.7917 110.167 70.8329 110.161 70.8733L101.568 169.388C101.561 169.474 101.521 169.555 101.458 169.613C101.394 169.672 101.311 169.705 101.224 169.707Z" fill="#E0E0E0"/>
<path d="M100.592 127.766H87.4255C87.1649 127.77 86.9063 127.719 86.667 127.615C86.4277 127.512 86.2132 127.358 86.0378 127.166C85.8624 126.973 85.7302 126.745 85.6498 126.497C85.5695 126.249 85.5429 125.986 85.5719 125.727L86.5911 114.039C86.6457 113.487 86.9009 112.975 87.3084 112.599C87.7159 112.223 88.2472 112.01 88.8014 112H101.968C102.229 111.995 102.488 112.046 102.728 112.149C102.968 112.252 103.184 112.405 103.36 112.598C103.536 112.791 103.669 113.019 103.749 113.268C103.83 113.516 103.857 113.779 103.828 114.039L102.809 125.727C102.754 126.28 102.498 126.793 102.089 127.169C101.68 127.545 101.147 127.757 100.592 127.766Z" fill="#BFA01D"/>
<path opacity="0.6" d="M100.031 127.766H86.865C86.6043 127.77 86.3457 127.719 86.1064 127.615C85.8672 127.512 85.6527 127.358 85.4773 127.166C85.3019 126.973 85.1696 126.745 85.0893 126.497C85.0089 126.249 84.9824 125.986 85.0114 125.727L86.0306 114.039C86.0851 113.487 86.3404 112.975 86.7479 112.599C87.1553 112.223 87.6866 112.01 88.2409 112H101.407C101.668 111.995 101.928 112.046 102.168 112.149C102.408 112.252 102.623 112.405 102.799 112.598C102.975 112.791 103.108 113.019 103.189 113.268C103.27 113.516 103.296 113.779 103.267 114.039L102.248 125.727C102.193 126.28 101.937 126.793 101.528 127.169C101.119 127.545 100.587 127.757 100.031 127.766Z" fill="white"/>
<path d="M280.457 108.31H266.615L267.985 92.5449H281.833L276.629 100.431L280.457 108.31Z" fill="white"/>
<path d="M280.972 108.629H266.265L267.698 92.2266H282.437L277.03 100.431L280.972 108.629ZM266.959 107.992H279.934L276.259 100.431L281.253 92.8635H268.277L266.959 107.992Z" fill="#BFA01D"/>
<path d="M229.848 128.011H216.682C216.422 128.016 216.163 127.966 215.923 127.863C215.684 127.76 215.469 127.608 215.293 127.415C215.117 127.223 214.984 126.996 214.903 126.748C214.822 126.5 214.794 126.238 214.822 125.979L215.841 114.284C215.899 113.733 216.156 113.222 216.564 112.848C216.973 112.474 217.504 112.262 218.058 112.252H231.224C231.485 112.248 231.743 112.299 231.982 112.402C232.221 112.505 232.436 112.658 232.611 112.85C232.787 113.042 232.92 113.269 233.002 113.516C233.083 113.763 233.111 114.025 233.084 114.284L232.065 125.979C232.008 126.53 231.75 127.041 231.342 127.415C230.934 127.79 230.402 128.002 229.848 128.011Z" fill="#BFA01D"/>
<path opacity="0.4" d="M229.848 128.011H216.682C216.422 128.016 216.163 127.966 215.923 127.863C215.684 127.76 215.469 127.608 215.293 127.415C215.117 127.223 214.984 126.996 214.903 126.748C214.822 126.5 214.794 126.238 214.822 125.979L215.841 114.284C215.899 113.733 216.156 113.222 216.564 112.848C216.973 112.474 217.504 112.262 218.058 112.252H231.224C231.485 112.248 231.743 112.299 231.982 112.402C232.221 112.505 232.436 112.658 232.611 112.85C232.787 113.042 232.92 113.269 233.002 113.516C233.083 113.763 233.111 114.025 233.084 114.284L232.065 125.979C232.008 126.53 231.75 127.041 231.342 127.415C230.934 127.79 230.402 128.002 229.848 128.011Z" fill="white"/>
<path d="M255.08 88.6072H220.122C219.861 88.6125 219.602 88.5619 219.362 88.4588C219.122 88.3557 218.906 88.2026 218.73 88.0096C218.554 87.8166 218.421 87.5883 218.341 87.3398C218.26 87.0913 218.233 86.8285 218.262 86.5689L219.282 74.8804C219.336 74.3288 219.591 73.8164 219.999 73.4406C220.406 73.0649 220.938 72.8518 221.492 72.842H256.455C256.716 72.8378 256.975 72.8891 257.215 72.9925C257.454 73.0959 257.669 73.2491 257.845 73.4418C258.021 73.6346 258.154 73.8625 258.235 74.1105C258.316 74.3585 258.343 74.6209 258.315 74.8804L257.296 86.5689C257.242 87.1216 256.985 87.6348 256.577 88.0107C256.168 88.3866 255.635 88.599 255.08 88.6072Z" fill="#BFA01D"/>
<path d="M198.392 116.13C193.08 116.13 188.653 114.251 185.513 110.652C181.481 106.021 180.875 100.276 183.927 95.6515C188.456 88.804 200.259 85.1541 208.023 86.1669C208.064 86.1721 208.103 86.1857 208.138 86.207C208.173 86.2282 208.203 86.2565 208.227 86.2901C208.25 86.3237 208.266 86.3619 208.274 86.4021C208.282 86.4423 208.281 86.4837 208.272 86.5236C208.252 86.6079 208.203 86.6821 208.132 86.7325C208.062 86.7828 207.976 86.806 207.89 86.7975C200.316 85.8102 188.838 89.3454 184.455 95.97C181.003 101.193 182.997 106.748 186.016 110.213C190.226 115.041 195.965 115.723 200.029 115.436C207.794 114.895 216.298 110.455 221.196 104.391C222.566 102.696 224.668 99.4415 223.381 96.7471C221.47 92.715 215.1 92.9953 209.788 93.6832C209.748 93.6886 209.707 93.6856 209.668 93.6744C209.63 93.6633 209.594 93.6443 209.562 93.6186C209.531 93.5929 209.506 93.561 209.488 93.525C209.469 93.489 209.459 93.4496 209.457 93.4093C209.454 93.3226 209.484 93.238 209.541 93.1721C209.597 93.1062 209.676 93.0637 209.762 93.0526C213.317 92.5876 221.636 91.5111 223.961 96.4413C225.4 99.4734 223.145 102.977 221.68 104.798C216.667 111.003 207.96 115.551 200.023 116.098C199.475 116.111 198.953 116.13 198.392 116.13Z" fill="#BFA01D"/>
<path d="M198.465 166.688C197.549 166.703 196.641 166.523 195.8 166.161C194.959 165.798 194.204 165.261 193.587 164.584C192.969 163.908 192.503 163.107 192.218 162.237C191.934 161.366 191.837 160.445 191.936 159.535C192.135 157.599 193.036 155.803 194.469 154.486C195.902 153.169 197.768 152.423 199.713 152.388C200.629 152.372 201.537 152.55 202.378 152.912C203.219 153.274 203.974 153.811 204.591 154.487C205.209 155.163 205.676 155.963 205.96 156.833C206.245 157.703 206.341 158.624 206.242 159.535C206.044 161.471 205.143 163.268 203.71 164.586C202.277 165.904 200.411 166.651 198.465 166.688ZM199.631 153.662C198.036 153.697 196.508 154.313 195.336 155.394C194.163 156.475 193.425 157.948 193.261 159.535C193.179 160.283 193.258 161.04 193.492 161.755C193.725 162.471 194.108 163.129 194.616 163.685C195.123 164.241 195.743 164.682 196.434 164.981C197.125 165.279 197.872 165.426 198.624 165.414C200.22 165.377 201.747 164.76 202.92 163.678C204.092 162.595 204.83 161.122 204.994 159.535C205.073 158.787 204.993 158.031 204.759 157.317C204.524 156.603 204.141 155.946 203.634 155.391C203.127 154.836 202.508 154.395 201.818 154.097C201.128 153.799 200.382 153.65 199.631 153.662Z" fill="#BFA01D"/>
<path d="M117.567 107.307C116.651 107.323 115.742 107.143 114.901 106.78C114.06 106.418 113.306 105.88 112.688 105.204C112.071 104.527 111.604 103.727 111.32 102.856C111.035 101.986 110.939 101.065 111.038 100.154C111.237 98.2133 112.141 96.4131 113.58 95.0946C115.018 93.7762 116.89 93.0312 118.84 93.0009C119.756 92.9856 120.665 93.1653 121.506 93.528C122.347 93.8908 123.101 94.4282 123.719 95.1047C124.336 95.7812 124.803 96.5813 125.087 97.4518C125.372 98.3224 125.468 99.2435 125.369 100.154C125.169 102.094 124.264 103.894 122.826 105.212C121.388 106.53 119.517 107.276 117.567 107.307ZM118.7 94.2748C117.104 94.31 115.576 94.9269 114.403 96.0096C113.23 97.0923 112.493 98.5662 112.331 100.154C112.249 100.902 112.328 101.659 112.561 102.375C112.795 103.09 113.178 103.748 113.685 104.304C114.193 104.86 114.813 105.302 115.504 105.6C116.195 105.898 116.941 106.046 117.694 106.033C119.289 105.997 120.817 105.38 121.989 104.297C123.162 103.215 123.9 101.742 124.064 100.154C124.144 99.4072 124.065 98.6517 123.832 97.9375C123.598 97.2234 123.216 96.5668 122.711 96.0112C122.205 95.4556 121.587 95.0135 120.898 94.7142C120.209 94.4149 119.464 94.2651 118.713 94.2748H118.7Z" fill="#BFA01D"/>
<path d="M131.209 129.43L133.693 130.493L130.362 134.576C129.78 133.562 129.326 132.48 129.011 131.353C128.965 131.189 128.951 131.016 128.973 130.846C128.994 130.676 129.05 130.512 129.136 130.364C129.222 130.216 129.337 130.087 129.475 129.984C129.612 129.882 129.769 129.808 129.935 129.767L131.209 129.43Z" fill="#FF8B7B"/>
<path d="M134.833 134.9L133.342 136.556C133.23 136.682 133.09 136.78 132.934 136.844C132.777 136.907 132.608 136.934 132.44 136.922C132.272 136.911 132.108 136.861 131.962 136.776C131.816 136.692 131.691 136.575 131.597 136.435L130.361 134.601L133.693 130.518L135.037 133.702C135.124 133.9 135.151 134.119 135.115 134.332C135.078 134.545 134.98 134.742 134.833 134.9Z" fill="#FF8B7B"/>
<path d="M161.669 102.803C162.745 105.23 163.847 107.72 164.962 110.141C166.077 112.561 167.229 115.02 168.465 117.147C168.727 117.591 169.019 118.017 169.338 118.421C169.72 118.874 170.147 119.339 170.58 119.816C171.465 120.765 172.414 121.727 173.364 122.67C175.275 124.581 177.185 126.492 179.096 128.486L177.185 130.976C174.771 129.585 172.432 128.067 170.179 126.428C169.045 125.606 167.937 124.753 166.828 123.823C166.274 123.358 165.726 122.861 165.166 122.32C164.58 121.708 164.046 121.05 163.567 120.351C161.972 117.962 160.54 115.468 159.28 112.886C158.038 110.37 156.898 107.867 155.834 105.242L161.669 102.803Z" fill="#FF8B7B"/>
<path d="M140.604 102.417C139.158 104.78 137.674 107.156 136.19 109.507L131.763 116.564L131.221 117.443L131.158 117.558V117.609V117.647C131.126 117.696 131.098 117.747 131.075 117.8C130.927 118.228 130.837 118.673 130.807 119.125C130.735 120.357 130.771 121.594 130.916 122.82C131.189 125.418 131.705 128.164 132.253 130.82L129.298 131.916C127.949 129.301 126.881 126.551 126.113 123.711C125.694 122.187 125.444 120.621 125.367 119.042C125.323 118.087 125.413 117.131 125.635 116.201C125.724 115.921 125.794 115.666 125.915 115.367L126.113 114.934L126.196 114.762L126.253 114.647L126.743 113.685C128.017 111.137 129.425 108.666 130.845 106.22C132.266 103.774 133.744 101.373 135.304 98.9902L140.604 102.417Z" fill="#FF8B7B"/>
<path d="M157.458 84.7783C157.344 85.0904 157.414 85.4153 157.618 85.5044C157.821 85.5936 158.083 85.4025 158.204 85.084C158.325 84.7655 158.248 84.4471 158.044 84.3579C157.841 84.2687 157.579 84.4598 157.458 84.7783Z" fill="#263238"/>
<path d="M157.381 85.4082C157.395 86.5352 157.558 87.6553 157.865 88.7396C157.591 88.805 157.305 88.8087 157.028 88.7503C156.752 88.6919 156.492 88.573 156.267 88.402L157.381 85.4082Z" fill="#FF5652"/>
<path d="M158.625 82.9161C158.584 82.9086 158.546 82.8886 158.516 82.8588C158.325 82.7021 158.1 82.5933 157.858 82.5412C157.617 82.4891 157.366 82.4954 157.128 82.5594C157.102 82.5661 157.076 82.5675 157.05 82.5637C157.023 82.5599 156.998 82.5509 156.976 82.5372C156.953 82.5236 156.934 82.5056 156.918 82.4842C156.903 82.4628 156.892 82.4386 156.886 82.4129C156.874 82.3623 156.883 82.3091 156.911 82.265C156.938 82.2209 156.982 82.1894 157.032 82.1772C157.335 82.0962 157.654 82.0898 157.96 82.1586C158.266 82.2273 158.551 82.3693 158.79 82.5722C158.809 82.5905 158.823 82.6124 158.833 82.6364C158.843 82.6605 158.849 82.6863 158.849 82.7123C158.849 82.7384 158.843 82.7641 158.833 82.7882C158.823 82.8122 158.809 82.8341 158.79 82.8524C158.77 82.8752 158.744 82.8929 158.715 82.9039C158.686 82.915 158.655 82.9192 158.625 82.9161Z" fill="#263238"/>
<path d="M145.846 85.4043C145.445 88.8312 146.101 93.1499 143.757 94.8698C143.757 94.8698 144.247 98.0547 149.885 98.9273C156.082 99.8446 153.184 96.2711 153.184 96.2711C149.891 94.9526 150.254 92.4493 151.101 90.1625L145.846 85.4043Z" fill="#FF8B7B"/>
<path d="M141.789 97.0203C141.706 95.4406 141.789 93.0583 142.77 92.7144C143.84 92.3385 150.165 92.8417 153.337 95.7145C152.611 97.147 152.24 98.733 152.255 100.339L141.789 97.0203Z" fill="#263238"/>
<path d="M122.406 239.089C121.832 239.042 121.274 238.882 120.762 238.618C120.745 238.609 120.73 238.596 120.72 238.579C120.709 238.562 120.704 238.542 120.705 238.522C120.707 238.504 120.713 238.486 120.725 238.472C120.736 238.457 120.751 238.446 120.769 238.44C120.826 238.44 122.1 237.93 122.68 238.204C122.742 238.234 122.798 238.277 122.843 238.329C122.888 238.382 122.921 238.443 122.941 238.51C122.977 238.587 122.986 238.674 122.969 238.758C122.952 238.841 122.909 238.917 122.845 238.975C122.718 239.066 122.561 239.106 122.406 239.089ZM121.062 238.542C121.648 238.803 122.482 239.007 122.705 238.822C122.705 238.822 122.794 238.752 122.705 238.567C122.693 238.527 122.672 238.49 122.645 238.458C122.617 238.426 122.584 238.4 122.546 238.382C122.046 238.294 121.532 238.349 121.062 238.542Z" fill="#BFA01D"/>
<path d="M120.807 238.634C120.78 238.633 120.755 238.622 120.737 238.602C120.727 238.588 120.723 238.571 120.723 238.554C120.723 238.537 120.727 238.521 120.737 238.507C120.737 238.456 121.093 237.296 121.654 237.022C121.723 236.991 121.798 236.975 121.874 236.975C121.949 236.975 122.024 236.991 122.093 237.022C122.168 237.04 122.234 237.084 122.279 237.146C122.325 237.208 122.347 237.284 122.342 237.36C122.342 237.838 121.316 238.526 120.858 238.634H120.807ZM121.877 237.163C121.819 237.163 121.763 237.176 121.711 237.201C121.349 237.506 121.089 237.915 120.966 238.373C121.444 238.156 122.1 237.615 122.119 237.328C122.119 237.328 122.119 237.233 121.998 237.188C121.96 237.171 121.918 237.162 121.877 237.163Z" fill="#BFA01D"/>
<path d="M154.426 240.944C153.999 240.943 153.572 240.902 153.152 240.823C153.134 240.816 153.119 240.804 153.108 240.788C153.097 240.772 153.091 240.753 153.091 240.734C153.091 240.715 153.097 240.696 153.108 240.68C153.119 240.664 153.134 240.652 153.152 240.645C153.362 240.517 155.222 239.454 155.668 240.193C155.713 240.257 155.738 240.334 155.738 240.412C155.738 240.491 155.713 240.568 155.668 240.632C155.477 240.868 154.961 240.944 154.426 240.944ZM153.451 240.677C154.241 240.791 155.305 240.772 155.483 240.517C155.483 240.517 155.541 240.435 155.483 240.295C155.203 239.874 154.069 240.352 153.451 240.677Z" fill="#BFA01D"/>
<path d="M153.152 240.831C153.135 240.838 153.117 240.838 153.101 240.831C153.086 240.822 153.074 240.809 153.066 240.793C153.058 240.777 153.055 240.76 153.056 240.742C153.072 240.154 153.278 239.587 153.642 239.124C153.717 239.061 153.805 239.013 153.899 238.983C153.993 238.954 154.092 238.943 154.19 238.952C154.47 238.984 154.553 239.124 154.572 239.239C154.648 239.723 153.699 240.608 153.196 240.838L153.152 240.831ZM154.113 239.131C153.987 239.131 153.865 239.176 153.769 239.258C153.476 239.621 153.302 240.066 153.273 240.532C153.776 240.22 154.426 239.519 154.375 239.226C154.375 239.226 154.375 239.124 154.171 239.105L154.113 239.131Z" fill="#BFA01D"/>
<path d="M148.547 240.728H152.738L152.783 231.014H148.585L148.547 240.728Z" fill="#FF8B7B"/>
<path d="M116.061 237.721L119.991 238.632L123.29 229.026L119.36 228.115L116.061 237.721Z" fill="#FF8B7B"/>
<path d="M120.603 237.983L116.036 236.818C115.956 236.795 115.871 236.802 115.796 236.837C115.721 236.872 115.662 236.933 115.628 237.009L114.055 240.455C114.017 240.541 113.998 240.634 114 240.728C114.002 240.822 114.025 240.914 114.067 240.998C114.109 241.082 114.169 241.156 114.243 241.214C114.317 241.272 114.403 241.313 114.494 241.334C116.099 241.71 116.896 241.812 118.902 242.315C120.138 242.627 122.66 243.398 124.367 243.824C126.074 244.251 126.654 242.601 125.985 242.277C122.998 240.792 122.023 239.544 121.208 238.378C121.059 238.18 120.845 238.04 120.603 237.983Z" fill="#263238"/>
<path d="M152.694 240.244H148.114C148.032 240.244 147.952 240.273 147.888 240.325C147.824 240.377 147.78 240.45 147.764 240.531L147.083 244.257C147.067 244.349 147.071 244.444 147.096 244.534C147.121 244.624 147.165 244.708 147.226 244.779C147.287 244.85 147.363 244.907 147.448 244.946C147.533 244.984 147.626 245.004 147.72 245.002C149.369 245.002 151.752 244.881 153.828 244.881C156.261 244.881 156.306 245.009 159.153 245.009C160.873 245.009 161.287 243.27 160.561 243.098C157.249 242.384 156.624 242.308 153.72 240.55C153.412 240.356 153.058 240.25 152.694 240.244Z" fill="#263238"/>
<path d="M138.846 94.5788C134.859 94.8973 129.234 104.898 129.234 104.898L136.458 111.44C138.707 108.921 140.754 106.229 142.579 103.388C145.414 98.8465 142.923 94.2539 138.846 94.5788Z" fill="#BFA01D"/>
<path opacity="0.6" d="M138.846 94.5788C134.859 94.8973 129.234 104.898 129.234 104.898L136.458 111.44C138.707 108.921 140.754 106.229 142.579 103.388C145.414 98.8465 142.923 94.2539 138.846 94.5788Z" fill="white"/>
<path opacity="0.2" d="M140.885 101.779L136.114 111.117L136.452 111.429C136.452 111.429 138.299 109.41 140.357 106.627L140.885 101.779Z" fill="black"/>
<path d="M158.827 117.001C158.107 121.626 156.967 127.346 155.215 134.391L133.029 131.078C133.233 127.893 136.628 113.695 135.959 98.4523C135.936 97.9447 136.017 97.4376 136.197 96.9626C136.378 96.4876 136.654 96.0547 137.009 95.691C137.364 95.3272 137.789 95.0402 138.26 94.8479C138.73 94.6556 139.235 94.5621 139.743 94.5731C140.839 94.5731 142.043 94.6559 143.227 94.7706C146.396 95.0594 149.545 95.5273 152.661 96.1719C154.797 96.7126 156.888 97.4175 158.916 98.2803C158.916 98.2803 160.508 100.618 159.649 110.345C159.477 112.275 159.215 114.472 158.827 117.001Z" fill="#BFA01D"/>
<path opacity="0.6" d="M158.827 117.001C158.107 121.626 156.967 127.346 155.215 134.391L133.029 131.078C133.233 127.893 136.628 113.695 135.959 98.4523C135.936 97.9447 136.017 97.4376 136.197 96.9626C136.378 96.4876 136.654 96.0547 137.009 95.691C137.364 95.3272 137.789 95.0402 138.26 94.8479C138.73 94.6556 139.235 94.5621 139.743 94.5731C140.839 94.5731 142.043 94.6559 143.227 94.7706C146.396 95.0594 149.545 95.5273 152.661 96.1719C154.797 96.7126 156.888 97.4175 158.916 98.2803C158.916 98.2803 160.508 100.618 159.649 110.345C159.477 112.275 159.215 114.472 158.827 117.001Z" fill="white"/>
<path opacity="0.2" d="M158.828 117.005C157.025 115.865 155.337 110.635 156.095 107.877L159.649 110.361C159.477 112.278 159.216 114.476 158.828 117.005Z" fill="black"/>
<path d="M153.841 101.141C152.694 104.962 159.637 116.218 159.637 116.218L167.918 111.886C166.7 108.359 165.066 104.989 163.051 101.848C159.733 96.962 155.166 96.8219 153.841 101.141Z" fill="#BFA01D"/>
<path opacity="0.6" d="M153.841 101.141C152.694 104.962 159.637 116.218 159.637 116.218L167.918 111.886C166.7 108.359 165.066 104.989 163.051 101.848C159.733 96.962 155.166 96.8219 153.841 101.141Z" fill="white"/>
<path opacity="0.2" d="M152.777 231.021L152.758 236.028H148.566L148.586 231.021H152.777Z" fill="black"/>
<path opacity="0.2" d="M119.361 228.121L123.291 229.026L121.584 233.981L117.66 233.07L119.361 228.121Z" fill="black"/>
<path d="M147.298 79.7639C146.082 83.7578 145.171 86.0254 146.368 88.8281C146.74 89.7457 147.356 90.5436 148.15 91.135C148.944 91.7263 149.885 92.0884 150.871 92.1817C151.856 92.275 152.849 92.0959 153.74 91.6641C154.63 91.2322 155.386 90.5641 155.923 89.7326C158.05 86.5477 159.681 80.5729 156.502 77.4581C155.835 76.7632 154.997 76.2569 154.071 75.9905C153.145 75.7241 152.166 75.7071 151.231 75.9412C150.297 76.1752 149.441 76.6521 148.751 77.3234C148.06 77.9947 147.559 78.8366 147.298 79.7639Z" fill="#FF8B7B"/>
<path d="M153.713 84.1533C153.235 86.198 151.993 89.8861 148.935 90.3129C147.228 90.5486 144.387 90.0453 144.126 88.6695C143.865 87.2936 144.922 87.4783 144.655 86.3509C144.387 85.2234 142.992 81.2551 144.578 78.4779C142.375 78.6626 143.884 75.3949 147.84 74.656C146.617 74.1783 147.203 70.8341 153.305 72.4266C156.159 73.1591 158.28 74.2802 158.535 75.8153C161.133 76.9109 161.821 79.669 160.21 80.6754C158.598 81.6818 156.267 80.548 156.267 80.548C156.267 80.548 157.369 86.3827 153.713 84.1533Z" fill="#263238"/>
<path d="M152.05 83.8419C151.994 84.759 152.275 85.6651 152.84 86.3898C153.598 87.358 153.853 87.3643 154.165 86.2879C154.451 85.3196 155.146 83.1539 154.133 82.5807C153.12 82.0074 152.139 82.7272 152.05 83.8419Z" fill="#FF8B7B"/>
<path d="M147.349 133.219C147.349 133.219 143.903 166.113 141.789 178.113C139.432 191.261 123.775 233.53 123.775 233.53L116.31 231.683C120.131 217.033 125.794 189.751 129.24 179.305C131.839 163.425 129.24 143.462 133.062 131.092L147.349 133.219Z" fill="#263238"/>
<path d="M125.513 231.083L124.137 233.777L115.755 231.669L116.449 229.121L125.513 231.083Z" fill="#BFA01D"/>
<path opacity="0.2" d="M145.223 146.047C145.46 146 145.705 146 145.943 146.047C144.841 155.869 143.274 168.978 142.038 176.501C141.006 165.571 140.051 147.066 145.223 146.047Z" fill="black"/>
<path d="M155.216 134.393C155.216 134.393 156.955 169.541 157.21 182.325C157.471 195.625 154.286 235.06 154.286 235.06H147.177C147.177 235.06 144.496 198.492 145.942 180.656C144.228 167.07 140.636 132.246 140.636 132.246L155.216 134.393Z" fill="#263238"/>
<path d="M180.867 128.085C179.711 127.989 178.549 128.155 177.466 128.569L176.95 129.423C176.849 129.592 176.788 129.781 176.771 129.977C176.755 130.173 176.782 130.37 176.852 130.553C176.922 130.737 177.032 130.903 177.175 131.038C177.317 131.173 177.489 131.274 177.676 131.334L180.166 132.13L181.383 132.499C181.639 132.579 181.914 132.575 182.167 132.489C182.421 132.403 182.642 132.24 182.797 132.022L183.319 131.295C183.507 131.039 183.592 130.722 183.558 130.406C183.524 130.09 183.373 129.799 183.135 129.588L182.014 128.576C181.694 128.293 181.292 128.121 180.867 128.085Z" fill="#FF8B7B"/>
<path d="M155.541 232.225L155.254 235.174H146.611L146.279 232.543L155.541 232.225Z" fill="#BFA01D"/>
</g>
<defs>
<clipPath id="clip0_1308_8969">
<rect width="318.488" height="256" fill="white" transform="translate(0.255859)"/>
</clipPath>
</defs>
</svg>
